<svg fill="rgb(201,169,130)" xmlns="http://www.w3.org/2000/svg" xmlns:xlink="http://www.w3.org/1999/xlink" height="512" width="512" xmlns:v="https://vecta.io/nano"><path d="M502 0H98c-5.522 0-10 4.477-10 10v44H54c-5.522 0-10 4.478-10 10v54H10c-5.523 0-10 4.478-10 10v330c0 29.775 24.225 54 54 54h404c29.775 0 54-24.225 54-54V10c0-5.523-4.478-10-10-10zm-10 458c0 18.748-15.252 34-34 34H95.912c7.55-9.29 12.088-21.123 12.088-34V323.003c0-5.522-4.478-10-10-10s-10 4.478-10 10V458c0 18.748-15.252 34-34 34s-34-15.252-34-34V138h24v310c0 5.522 4.478 10 10 10s10-4.478 10-10V74h24v159.003c0 5.523 4.478 10 10 10s10-4.477 10-10V20h384zM146 158h308c5.522 0 10-4.477 10-10V76c0-5.522-4.478-10-10-10H146c-5.523 0-10 4.478-10 10v72a10 10 0 0 0 10 10zm10-72h288v52H156zm-10 312h154c5.522 0 10-4.478 10-10V196c0-5.523-4.478-10-10-10H146a10 10 0 0 0-10 10v192c0 5.522 4.477 10 10 10zm10-192h134v172H156zm298-20H348c-5.522 0-10 4.477-10 10s4.478 10 10 10h106c5.522 0 10-4.477 10-10s-4.478-10-10-10zm0 48H348c-5.522 0-10 4.477-10 10s4.478 10 10 10h106c5.522 0 10-4.477 10-10s-4.478-10-10-10z"/><use xlink:href="#B"/><use xlink:href="#B" y="48"/><use xlink:href="#B" y="96"/><path d="M146 446h308c5.522 0 10-4.478 10-10s-4.478-10-10-10H146c-5.523 0-10 4.478-10 10s4.477 10 10 10zM98.5 268c-2.63 0-5.21 1.069-7.07 2.93A10.08 10.08 0 0 0 88.5 278a10.05 10.05 0 0 0 2.93 7.069c1.86 1.87 4.44 2.931 7.07 2.931s5.21-1.06 7.069-2.931c1.86-1.859 2.931-4.439 2.931-7.069s-1.07-5.21-2.931-7.07A10.07 10.07 0 0 0 98.5 268z"/><defs ><path id="B" d="M454 282H348c-5.522 0-10 4.478-10 10s4.478 10 10 10h106c5.522 0 10-4.478 10-10s-4.478-10-10-10z"/></defs></svg>