<svg fill="rgb(201,169,130)" enable-background="new 0 0 512 512" height="512" viewBox="0 0 512 512" width="512" xmlns="http://www.w3.org/2000/svg"><g><path d="m422.84 425h-15.72v-239.39c0-83.328-67.792-151.12-151.12-151.12-33.092 0-64.539 10.545-90.941 30.496-3.305 2.497-3.959 7.201-1.462 10.505s7.198 3.96 10.505 1.462c23.777-17.966 52.097-27.463 81.898-27.463 75.057 0 136.12 61.063 136.12 136.12v239.39h-17v-239.39c0-50.8-31.969-94.268-76.843-111.361-.329-.152-.668-.284-1.02-.388-12.861-4.764-26.76-7.37-41.257-7.37s-28.396 2.607-41.257 7.37c-.352.104-.692.236-1.02.388-44.873 17.093-76.843 60.56-76.843 111.361v239.39h-17v-239.39c0-31.04 10.771-61.425 30.327-85.558 2.607-3.218 2.113-7.941-1.105-10.549-3.218-2.609-7.941-2.112-10.549 1.104-21.714 26.795-33.673 60.534-33.673 95.002v239.391h-15.72c-6.893 0-12.5 5.607-12.5 12.5v27.51c0 6.893 5.607 12.5 12.5 12.5h333.68c6.893 0 12.5-5.607 12.5-12.5v-27.51c0-6.893-5.608-12.5-12.5-12.5zm-198.47 0v-55.18h63.26v55.18zm70.765-70.18h-.01-78.25-.01-64.985v-20.476h208.24v20.476zm-39.135-215.856c26.289 0 47.677 21.388 47.677 47.676 0 26.29-21.388 47.677-47.677 47.677s-47.677-21.388-47.677-47.677c0-26.288 21.388-47.676 47.677-47.676zm-31.63 101.754c9.292 5.456 20.098 8.6 31.63 8.6s22.338-3.144 31.63-8.6v78.627h-63.26zm135.75-55.108v133.734h-57.49v-90.877c9.969-11.103 16.047-25.766 16.047-41.827 0-16.06-6.078-30.724-16.047-41.826v-52.28c34.062 17.135 57.49 52.418 57.49 93.076zm-72.49-99.203v46.156c-9.292-5.456-20.098-8.6-31.63-8.6s-22.338 3.144-31.63 8.6v-46.156c9.98-3.189 20.606-4.917 31.63-4.917s21.65 1.728 31.63 4.917zm-78.26 6.127v52.28c-9.969 11.102-16.047 25.766-16.047 41.826 0 16.061 6.078 30.725 16.047 41.827v90.877h-57.49v-133.734c0-40.658 23.428-75.941 57.49-93.076zm-57.49 277.286h57.49v55.18h-57.49zm268.46 92.69h-328.68v-22.51h219.52c4.143 0 7.5-3.358 7.5-7.5s-3.357-7.5-7.5-7.5h-8.55v-55.18h57.49v55.18h-13.94c-4.143 0-7.5 3.358-7.5 7.5s3.357 7.5 7.5 7.5h74.16z"/><path d="m502.627 197.322h-6.54c3.025-5.871 4.663-12.438 4.663-19.242 0-17.817-11.297-33.762-28.111-39.675-1.611-.566-3.365-.566-4.977 0-16.814 5.913-28.112 21.857-28.112 39.675 0 6.805 1.638 13.372 4.663 19.242h-6.54c-5.168 0-9.373 4.205-9.373 9.374v29.826c0 5.168 4.205 9.374 9.373 9.374h.814l19.936 85.147c1.282 5.475 6.104 9.298 11.728 9.298s10.445-3.824 11.727-9.298l19.936-85.147h.814c5.168 0 9.373-4.205 9.373-9.374v-29.826c-.001-5.169-4.206-9.374-9.374-9.374zm-48.077-19.242c0-10.56 6.169-20.097 15.601-24.508 9.431 4.411 15.6 13.948 15.6 24.508 0 7.298-2.913 14.177-8.057 19.242h-15.086c-5.145-5.065-8.058-11.944-8.058-19.242zm-11.25 34.242h53.7v18.573h-53.7zm26.849 103.008-16.257-69.434h32.514z"/><path d="m83.7 236.522v-29.826c0-5.168-4.205-9.374-9.373-9.374h-6.54c3.025-5.87 4.663-12.437 4.663-19.242 0-17.818-11.298-33.762-28.112-39.675-1.611-.566-3.365-.566-4.977 0-16.814 5.914-28.111 21.858-28.111 39.675 0 6.805 1.638 13.372 4.663 19.242h-6.54c-5.168 0-9.373 4.205-9.373 9.374v29.826c0 5.168 4.205 9.374 9.373 9.374h.815l19.935 85.146c1.281 5.475 6.104 9.299 11.727 9.299 5.624 0 10.446-3.824 11.728-9.298l19.936-85.147h.814c5.167 0 9.372-4.206 9.372-9.374zm-57.45-58.442c0-10.56 6.169-20.097 15.6-24.508 9.432 4.411 15.601 13.948 15.601 24.508 0 7.298-2.914 14.177-8.058 19.242h-15.086c-5.144-5.065-8.057-11.944-8.057-19.242zm-11.25 34.242h53.7v18.573h-53.7zm26.851 103.008-16.257-69.435h32.514z"/><path d="m179.381 308.579c12.661 0 22.961-10.3 22.961-22.96s-10.3-22.961-22.961-22.961-22.961 10.3-22.961 22.961 10.3 22.96 22.961 22.96zm0-30.922c4.39 0 7.961 3.571 7.961 7.961s-3.571 7.96-7.961 7.96-7.961-3.571-7.961-7.96 3.571-7.961 7.961-7.961z"/></g></svg>