<svg fill="rgb(201,169,130)" xmlns="http://www.w3.org/2000/svg" xmlns:xlink="http://www.w3.org/1999/xlink" height="512" viewBox="0 0 64 64" width="512" xmlns:v="https://vecta.io/nano"><path d="M55.267 22.76H41.535V8.423a7.71 7.71 0 0 0-2.276-5.486A7.71 7.71 0 0 0 33.773.661H8.724C4.444.661.962 4.143.962 8.423v16.699c0 4.28 3.482 7.762 7.762 7.762h.587v4.762c0 1.474.877 2.781 2.235 3.331a3.57 3.57 0 0 0 1.343.262c.939 0 1.855-.373 2.528-1.067l7.04-7.002v14.05c0 4.279 3.486 7.761 7.77 7.761h11.021l7.312 7.273a3.55 3.55 0 0 0 2.552 1.085 3.56 3.56 0 0 0 1.344-.264c1.356-.549 2.232-1.854 2.232-3.325v-4.77h.579c4.285 0 7.771-3.481 7.771-7.761v-16.7c0-4.277-3.486-7.759-7.771-7.759zm-33.142 7.124a1.5 1.5 0 0 0-1.058.437l-7.785 7.743a.53.53 0 0 1-.61.132c-.135-.055-.361-.198-.361-.55v-6.262a1.5 1.5 0 0 0-1.5-1.5H8.724a4.77 4.77 0 0 1-4.762-4.762V8.423a4.77 4.77 0 0 1 4.762-4.762h25.048c1.27 0 2.464.496 3.365 1.397s1.397 2.095 1.397 3.364v16.699a4.77 4.77 0 0 1-4.763 4.762H22.125zM60.038 47.22c0 2.625-2.14 4.761-4.771 4.761h-2.079a1.5 1.5 0 0 0-1.5 1.5v6.27c0 .348-.226.491-.359.545s-.385.107-.634-.148l-7.77-7.729a1.5 1.5 0 0 0-1.058-.437h-11.64c-2.63 0-4.77-2.136-4.77-4.761V32.884h8.314a7.77 7.77 0 0 0 7.73-7.123h13.765c2.631 0 4.771 2.135 4.771 4.76V47.22zM33.461 36.667c-1.22 0-2.213.994-2.213 2.213a2.22 2.22 0 0 0 2.213 2.213 2.22 2.22 0 0 0 2.215-2.213 2.22 2.22 0 0 0-2.215-2.213z"/><use xlink:href="#B"/><use xlink:href="#B" x="9.286"/><path d="M20.753 21.827c-.866 0-1.568.722-1.568 1.589 0 .846.681 1.589 1.568 1.589s1.589-.743 1.589-1.589c0-.867-.722-1.589-1.589-1.589zm.306-13.287c-3.192 0-4.659 1.892-4.659 3.169 0 .922.78 1.348 1.419 1.348 1.277 0 .757-1.821 3.169-1.821 1.182 0 2.128.52 2.128 1.608 0 1.277-1.324 2.01-2.104 2.672-.686.591-1.585 1.561-1.585 3.595 0 1.23.331 1.584 1.301 1.584 1.159 0 1.395-.52 1.395-.97 0-1.23.024-1.939 1.324-2.956.638-.497 2.648-2.105 2.648-4.328S24.086 8.54 21.059 8.54z"/><defs ><path id="B" d="m42.747 36.667c-1.22 0-2.213.994-2.213 2.213s.994 2.213 2.213 2.213c1.221 0 2.215-.994 2.215-2.213s-.994-2.213-2.215-2.213z"/></defs></svg>