<svg fill="rgb(201,169,130)" xmlns="http://www.w3.org/2000/svg" height="512" width="512" xmlns:v="https://vecta.io/nano"><path d="M499.479 332.18H289.224v-33.31a54.15 54.15 0 0 1 22.045-43.509l32.865-24.109h19.345c13.386 0 24.277-10.891 24.277-24.277s-10.891-24.277-24.277-24.277h-.516l21.03-11.838a31.48 31.48 0 0 1 15.41-4.039c17.322 0 31.414 14.092 31.414 31.415v61.807c0 18.587 3.557 36.741 10.573 53.955 1.565 3.881 6.047 5.678 9.792 4.122 3.842-1.566 5.688-5.951 4.122-9.793-6.278-15.404-9.461-31.65-9.461-48.284v-61.807c0-25.607-20.833-46.441-46.441-46.441a46.53 46.53 0 0 0-22.78 5.971l-44.56 24.931h-50.637v-17.784a29.59 29.59 0 0 1 12.046-23.775l16.268-11.933h6.114c12.145 0 22.026-9.881 22.026-22.027s-9.881-22.027-22.026-22.027H196.147c-12.145 0-22.026 9.881-22.026 22.027s9.881 22.027 22.026 22.027h6.112l16.27 11.933c7.542 5.534 12.045 14.421 12.045 23.775v17.784h-51.009l-44.278-24.93a46.53 46.53 0 0 0-22.781-5.972c-25.607 0-46.441 20.833-46.441 46.441v61.807a127.33 127.33 0 0 1-9.461 48.284c-1.566 3.843.279 8.227 4.122 9.793 3.745 1.555 8.227-.241 9.793-4.121 7.015-17.213 10.573-35.366 10.573-53.956v-61.807c0-17.323 14.093-31.415 31.415-31.415 5.387 0 10.716 1.397 15.41 4.04l21.028 11.837h-.424c-13.386 0-24.277 10.891-24.277 24.277s10.891 24.277 24.277 24.277h19.345l32.866 24.109c13.803 10.125 22.044 26.39 22.044 43.509v33.31H12.521A12.54 12.54 0 0 0 0 344.702v22.289c0 15.19 12.358 27.547 27.547 27.547h37.964c2.874 0 5.492 1.681 6.831 4.385 10.149 20.505 30.653 33.242 53.511 33.242h22.088c4.149 0 7.513-3.363 7.513-7.513s-3.364-7.513-7.513-7.513h-22.088c-17.104 0-32.448-9.534-40.045-24.882-3.892-7.862-11.669-12.745-20.297-12.745H27.547a12.54 12.54 0 0 1-12.521-12.521v-19.785h481.949v19.785a12.54 12.54 0 0 1-12.521 12.521H446.49c-8.628 0-16.406 4.883-20.297 12.745-7.597 15.349-22.942 24.882-40.045 24.882H186.381c-4.149 0-7.513 3.363-7.513 7.513s3.364 7.513 7.513 7.513h18.47v6.103a40.96 40.96 0 0 1-16.673 32.909l-12.698 9.315c-3.985 2.923-5.629 8.043-4.091 12.741s5.892 7.852 10.835 7.852h147.553c4.942 0 9.297-3.156 10.835-7.852a11.38 11.38 0 0 0-4.091-12.741l-12.698-9.316c-10.44-7.658-16.673-19.96-16.673-32.908v-6.103h78.998c22.857 0 43.362-12.738 53.511-33.242 1.339-2.705 3.956-4.385 6.831-4.385h37.963c15.19 0 27.547-12.357 27.547-27.547v-22.289a12.54 12.54 0 0 0-12.521-12.522zm-310.333-225a7.01 7.01 0 0 1 7.001-7.001h119.706a7.01 7.01 0 0 1 7 7.001 7.01 7.01 0 0 1-7 7.001H196.147a7.01 7.01 0 0 1-7.001-7.001zm38.504 22.027h56.7a44.67 44.67 0 0 0-17.95 35.708v17.784h-20.8v-17.784a44.67 44.67 0 0 0-17.95-35.708zm-18.031 114.038l-16.348-11.992h62.197c4.15 0 7.513-3.363 7.513-7.513s-3.363-7.513-7.513-7.513H148.52c-5.101 0-9.251-4.15-9.251-9.251s4.15-9.251 9.251-9.251h214.96c5.102 0 9.251 4.15 9.251 9.251s-4.15 9.251-9.251 9.251h-68.507c-4.15 0-7.513 3.363-7.513 7.513s3.363 7.513 7.513 7.513h23.757l-16.347 11.992a69.23 69.23 0 0 0-28.184 55.625v33.31h-36.397v-33.31c-.001-21.885-10.536-42.68-28.183-55.625zm105.316 240.047l3.772 2.767H193.293l3.772-2.766c14.284-10.478 22.811-27.309 22.811-45.024v-6.103h72.247v6.103c0 17.715 8.528 34.546 22.812 45.023zm95.029-292.567c-4.15 0-7.513 3.363-7.513 7.513v63.264c0 17.145 1.736 34.358 5.16 51.162 1.851 9.618 16.802 6.496 14.722-2.999-3.222-15.819-4.857-32.023-4.857-48.162v-63.264c.001-4.151-3.362-7.514-7.512-7.514zM96.944 318.679c3.497 0 6.629-2.455 7.354-6.015 3.424-16.801 5.16-34.015 5.16-51.162v-63.264c0-4.15-3.364-7.513-7.513-7.513s-7.513 3.363-7.513 7.513v63.264a241.73 241.73 0 0 1-4.857 48.162c-.994 4.592 2.685 9.062 7.369 9.015zm42.325-7.515v-56.463c0-4.15-3.364-7.513-7.513-7.513s-7.513 3.363-7.513 7.513v56.463c0 4.15 3.364 7.513 7.513 7.513s7.513-3.363 7.513-7.513zm233.462-56.463v56.463c0 4.15 3.363 7.513 7.513 7.513s7.513-3.363 7.513-7.513v-56.463c0-4.15-3.363-7.513-7.513-7.513s-7.513 3.364-7.513 7.513zM210.542 36.659l2.204 1.885a29.65 29.65 0 0 1 10.393 22.563v5.904c0 4.15 3.364 7.513 7.513 7.513s7.513-3.363 7.513-7.513v-5.904c0-13.09-5.706-25.476-15.654-33.983l-2.204-1.885c-3.153-2.697-7.896-2.327-10.593.828s-2.325 7.895.828 10.592zm-75.336 103.242c3.78 1.458 8.221-.451 9.684-4.372l3.999-10.579a107.31 107.31 0 0 0 6.955-38.074V72.155c0-10.57 8.599-19.169 19.168-19.169 6.105 0 11.896 2.945 15.491 7.88l8.432 11.571c2.443 3.352 7.143 4.09 10.496 1.647s4.091-7.143 1.647-10.496l-8.432-11.571c-6.414-8.801-16.745-14.056-27.635-14.056-18.855 0-34.194 15.34-34.194 34.194v14.721a92.35 92.35 0 0 1-5.985 32.762l-3.999 10.579a7.52 7.52 0 0 0 4.373 9.684zM281.72 74.523c4.15 0 7.513-3.363 7.513-7.513v-5.904a29.65 29.65 0 0 1 10.394-22.564l2.204-1.885c3.153-2.697 3.523-7.439.826-10.592s-7.439-3.524-10.592-.826l-2.203 1.884c-9.949 8.507-15.654 20.893-15.654 33.983v5.904c-.001 4.15 3.362 7.513 7.512 7.513zm19.44-.439a7.51 7.51 0 0 0 10.496-1.647l8.431-11.571a19.23 19.23 0 0 1 15.491-7.88c10.57 0 19.169 8.599 19.169 19.169v14.721c0 13.055 2.341 25.865 6.956 38.074l3.998 10.579c3.372 9.203 17.622 3.727 14.055-5.312l-3.998-10.58c-3.972-10.506-5.986-21.528-5.986-32.761V72.155c0-18.854-15.34-34.194-34.194-34.194-10.89 0-21.221 5.255-27.635 14.056l-8.431 11.571c-2.443 3.353-1.705 8.052 1.648 10.496zm-45.16.439c4.15 0 7.513-3.363 7.513-7.513V18.427c0-4.15-3.363-7.513-7.513-7.513s-7.513 3.363-7.513 7.513V67.01c0 4.15 3.364 7.513 7.513 7.513z"/></svg>