<svg fill="rgb(201,169,130)" xmlns="http://www.w3.org/2000/svg" viewBox="0 0 512 512" xmlns:v="https://vecta.io/nano"><path d="M276.316 202.039l-23.28-19.674 3.011-30.333c.332-3.349-1.236-6.535-4.093-8.316a8.72 8.72 0 0 0-9.27-.011l-25.906 16.06-27.916-12.235a8.72 8.72 0 0 0-9.175 1.321c-2.577 2.168-3.679 5.546-2.875 8.814l7.269 29.601-20.262 22.767c-2.239 2.515-2.844 6.015-1.58 9.136a8.72 8.72 0 0 0 7.493 5.458l30.399 2.234 15.394 26.31c1.592 2.72 4.448 4.344 7.561 4.344l.638-.022c3.357-.239 6.233-2.322 7.506-5.44l11.518-28.221 29.782-6.511c3.287-.721 5.832-3.199 6.641-6.465s-.285-6.644-2.855-8.817zm-39.916 7.897a8.78 8.78 0 0 0-6.253 5.259l-8.03 19.674-10.735-18.346a8.78 8.78 0 0 0-6.931-4.316l-21.192-1.557 14.129-15.877a8.78 8.78 0 0 0 1.965-7.927l-5.068-20.636 19.457 8.527c2.646 1.163 5.693.947 8.155-.577l18.061-11.197-2.098 21.145a8.78 8.78 0 0 0 3.069 7.574l16.23 13.715-20.759 4.539zm255.543 176.906l-24.885-21.981c-6.347-5.605-16.02-5.722-22.501-.273l-1.116.939c-1.1-3.964-3.11-7.716-6.059-10.892-3.603-3.881-8.178-6.536-13.218-7.73 2.907-8.928 1.028-19.133-5.799-26.488a26.53 26.53 0 0 0-18.59-8.52c-.215-.008-.428-.005-.642-.008.327-6.924-2.011-13.968-7.087-19.437-4.796-5.167-11.297-8.177-18.329-8.505.634-7.264-1.68-14.758-7.019-20.509a26.53 26.53 0 0 0-18.59-8.52c-7.134-.269-13.94 2.266-19.169 7.123l-3.544 3.292c-5.148-3.716-11.307-5.826-17.848-6.041-.824-.028-1.643-.016-2.459.016l2.656-8.863c4.763-15.896 7.727-44.713 7.639-43.167l.772.37c3.654 1.63 7.591 2.44 11.512 2.44 4.495 0 8.969-1.065 12.967-3.182 8.323-4.406 14.23-13.616 14.7-22.919.447-8.853-3.722-16.67-11.738-22.013a7.47 7.47 0 0 0-10.353 2.072 7.47 7.47 0 0 0 2.073 10.353c3.565 2.375 5.283 5.347 5.106 8.834-.207 4.102-3.056 8.508-6.774 10.476-3.409 1.806-7.781 1.921-11.411.301-2.318-1.033-5.323-3.232-6.473-7.835-3.425-13.709 4.429-27.316 13.522-43.07 16.471-28.537 36.969-64.05-5.939-114.766l-17.77-21.004c-3.579-4.231-8.591-6.81-14.113-7.264s-10.888 1.272-15.11 4.862c-11.449 9.735-17.401 24.476-15.923 39.431l.887 8.972c.455 4.601-1.317 9.121-4.727 12.215l9.621 11.44c7.179-6.27 10.904-15.622 9.964-25.124l-.887-8.972c-.997-10.084 3.016-20.023 10.736-26.587a5.72 5.72 0 0 1 4.215-1.356c1.54.126 2.938.846 3.937 2.026l17.77 21.004c36.126 42.701 20.718 69.397 4.406 97.658-2.552 4.421-5.124 8.883-7.451 13.407-6.169-21.2-16.494-40.91-30.77-57.883l-34.17-40.627.192-.161a13.32 13.32 0 0 0 4.73-9.11 13.32 13.32 0 0 0-3.098-9.786l-10.918-12.981a13.32 13.32 0 0 0-9.11-4.73 13.33 13.33 0 0 0-9.787 3.097L43.434 161.979a13.43 13.43 0 0 0-1.632 18.896l10.918 12.981a13.32 13.32 0 0 0 9.111 4.73c.394.034.786.051 1.176.051 3.151 0 6.171-1.097 8.609-3.149l.193-.163 12.833 15.259c-3.614 2.784-8.324 3.742-12.744 2.531l-8.693-2.386a45.85 45.85 0 0 0-41.551 9.049 20.57 20.57 0 0 0-7.339 14.075 20.56 20.56 0 0 0 4.781 15.135l17.709 21.055c42.759 50.841 81.22 36.623 112.124 25.197 13.947-5.156 26.339-9.736 37.465-8.13a173.46 173.46 0 0 0 6.237 1.636c.345.135.689.274 1.032.424 4.343 1.908 6.004 5.241 6.633 7.7.984 3.85.133 8.14-2.221 11.197-2.566 3.333-7.389 5.394-11.468 4.911-3.467-.414-6.107-2.608-7.848-6.522a7.47 7.47 0 0 0-9.856-3.787 7.47 7.47 0 0 0-3.788 9.855c3.915 8.802 10.919 14.229 19.72 15.28a24.75 24.75 0 0 0 2.934.173c8.382-.001 16.993-4.123 22.134-10.8 5.168-6.71 6.984-15.684 4.857-24.004-.049-.19-.108-.375-.161-.563a184.32 184.32 0 0 0 20.641 1.167 190.59 190.59 0 0 0 22.584-1.351l.661-.079c-3.4 4.056-6.047 8.718-7.758 13.714l-29.347 72.186L64.838 498.616c-2.534 1.948-3.547 5.295-2.517 8.321A7.47 7.47 0 0 0 69.389 512h177.372a7.47 7.47 0 0 0 5.348-2.256l9.879-10.143a7.47 7.47 0 0 0-.139-10.558 7.47 7.47 0 0 0-10.557.139l-7.681 7.887H91.347l140.742-108.217c.104-.08.197-.167.295-.251.067-.057.136-.112.201-.172.238-.218.459-.448.663-.69.04-.048.077-.099.116-.149.186-.232.356-.473.511-.723.029-.047.061-.092.089-.14a7.46 7.46 0 0 0 .46-.921c.009-.021.022-.04.03-.061l30.192-74.264c.058-.143.112-.288.161-.434 1.466-4.364 4.027-8.35 7.405-11.53l21.443-20.182c3.682-3.466 8.43-5.286 13.399-5.12 4.691.155 9.003 2.096 12.141 5.467l.798.857.001.001.001.001 26.228 28.171.006.007 3.727 4.003c1.566 1.682 2.38 3.904 2.295 6.256-.091 2.526-1.187 4.889-3.084 6.652l-4.323 4.017c-2.991 2.778-7.241 3.303-10.541 1.621-.086-.047-.176-.086-.265-.13-.766-.425-1.476-.973-2.101-1.644l-10.887-11.712c-3.891-4.185-9.207-6.596-14.968-6.788-5.903-.193-11.559 1.947-15.905 6.037a7.49 7.49 0 0 0-1.069 1.256c-.765 1.132-1.208 2.458-1.272 3.833a7.42 7.42 0 0 0 .008.83.3.3 0 0 1 .001.03c.036.567.061 1.128.076 1.686.008.314.007.625.009.937l.003.719a42.07 42.07 0 0 1-.033 1.185l-.016.429c-.022.444-.053.885-.089 1.322l-.014.172a7.55 7.55 0 0 0-.045.562c-.697 6.912-3.195 13.098-7.56 18.763-2.517 3.266-1.909 7.954 1.357 10.47a7.47 7.47 0 0 0 10.47-1.358c2.586-3.356 4.707-6.891 6.373-10.589l63.499 86.849-1.515 1.274c-.948.325-1.847.843-2.631 1.565-5.277 4.855-11.736 8.127-18.699 9.479l-46.751 3.36c-1.824.131-3.537.927-4.813 2.237l-11.935 12.254a7.47 7.47 0 0 0 .139 10.558 7.44 7.44 0 0 0 5.208 2.117c1.943 0 3.885-.754 5.348-2.256l9.954-10.221 44.347-3.186c.085-.006.168-.023.252-.032.193 2.674.993 5.325 2.465 7.719l17.39 28.283c2.629 4.276 6.978 7.187 11.932 7.987.918.149 1.838.222 2.753.222 4.028 0 7.958-1.412 11.088-4.045l105.218-88.492a17.22 17.22 0 0 0 .318-26.108zm-348.19-105.606c-30.609 11.316-59.519 22.003-95.519-20.802l-17.709-21.055a5.74 5.74 0 0 1-1.333-4.222c.135-1.54.862-2.935 2.048-3.926a30.92 30.92 0 0 1 28.016-6.102l8.693 2.386a29.51 29.51 0 0 0 26.319-5.487l11.712 13.926c14.31 17.015 32.008 30.591 51.895 40.307-4.734 1.506-9.449 3.247-14.122 4.975zm149.686-35.077l-5.637 18.811c-1.536 1.034-3.004 2.195-4.382 3.491l-7.143 6.723-20.222 2.416c-54.359 6.495-106.194-12.668-138.649-51.257l-34.169-40.627 13.339-11.219c3.156-2.654 3.562-7.364.908-10.519s-7.364-3.565-10.519-.909l-19.05 16.021-4.746 3.992-8.962-10.655L224.421 29.271l8.962 10.656-4.733 3.981c-.013.009-.016.013-.019.015l-114.739 96.5a7.47 7.47 0 0 0-.908 10.519 7.47 7.47 0 0 0 10.519.909l109.034-91.704 34.169 40.627c32.456 38.591 42.449 92.941 26.733 145.385zm125 114.968a11.42 11.42 0 0 1 8 3.667c3.562 3.838 4.05 9.589 1.282 13.954l-32.529 27.359a11.35 11.35 0 0 1-9.34-3.619c-4.311-4.644-4.041-11.93.6-16.243l4.713-4.379a27.27 27.27 0 0 0 2.487-2.041l18.206-16.913c1.948-1.239 4.216-1.862 6.581-1.785zm-26.792-31.908a11.68 11.68 0 0 1 7.128-2.41c.148 0 .297.003.446.008a11.71 11.71 0 0 1 8.2 3.758 11.8 11.8 0 0 1-.615 16.648l-4.3 3.995a26.94 26.94 0 0 0-2.48 2.034l-18.228 16.934a11.64 11.64 0 0 1-6.764 1.841 11.71 11.71 0 0 1-8.2-3.758 11.8 11.8 0 0 1-.258-15.74l.755-.669 23.317-21.662c.345-.32.676-.646.999-.979zm-39.57-36.129l-16.057-17.247 3.081-2.863c2.306-2.142 5.308-3.237 8.454-3.142a11.71 11.71 0 0 1 8.2 3.758 11.8 11.8 0 0 1-.616 16.649l-3.062 2.845zm2.929 47.497l4.324-4.018c4.821-4.478 7.606-10.534 7.842-17.049.205-5.658-1.555-11.063-4.979-15.432l2.255-2.095a11.67 11.67 0 0 1 8.454-3.142c3.145.117 6.057 1.451 8.199 3.758 4.131 4.45 4.156 11.265.255 15.746l-.751.664-23.317 21.662c-.345.321-.679.649-1.003.983-1.754 1.342-3.828 2.144-6.017 2.345a24.57 24.57 0 0 0 4.738-3.422zm-52.185-12.528l.047-1.693c.215-.081.435-.151.657-.211a6.98 6.98 0 0 1 2.06-.235c1.758.058 3.366.781 4.53 2.032l10.887 11.711c1.114 1.198 2.327 2.253 3.614 3.165 1.199 2.816 2.858 5.376 4.956 7.636 4.856 5.231 11.458 8.257 18.591 8.521l.642.012c-.326 6.922 2.012 13.965 7.087 19.432 3.638 3.919 8.256 6.6 13.343 7.81-2.972 8.88-1.133 19.077 5.673 26.408a26.19 26.19 0 0 0 6.477 5.072l-8.057 6.776-70.507-96.436zm179.193 73.462l-105.218 88.492c-.702.592-1.462.573-1.849.511s-1.113-.285-1.594-1.067l-17.39-28.284c-.602-.979-.401-2.227.479-2.967l97.719-82.187c.429-.361.958-.54 1.486-.54.547 0 1.093.192 1.524.573l24.885 21.981c.688.608.783 1.36.778 1.755a2.27 2.27 0 0 1-.82 1.733z"/></svg>