<svg fill="rgb(201,169,130)" xmlns="http://www.w3.org/2000/svg" height="512" viewBox="0 0 64 64" width="512" xmlns:v="https://vecta.io/nano"><path d="M32 40a8.01 8.01 0 0 0 8-8 8.01 8.01 0 0 0-8-8 8.01 8.01 0 0 0-8 8 8.01 8.01 0 0 0 8 8zm0-14a6.01 6.01 0 0 1 6 6 6.01 6.01 0 0 1-6 6 6.01 6.01 0 0 1-6-6 6.01 6.01 0 0 1 6-6zm0 10c2.206 0 4-1.794 4-4s-1.794-4-4-4-4 1.794-4 4 1.794 4 4 4zm0-6c1.103 0 2 .897 2 2s-.897 2-2 2-2-.897-2-2 .897-2 2-2zm-6.57 13.814l1.748-.836.471.196.643 1.826h7.415l.645-1.826.471-.196 1.748.836 5.244-5.244-.836-1.748.196-.471L45 35.708v-7.415l-1.826-.645-.196-.471.836-1.748-5.244-5.244-1.748.836-.471-.196L35.708 19h-7.415l-.645 1.826-.471.196-1.748-.836-5.244 5.244.836 1.748-.196.471-1.825.643v7.415l1.826.645.196.471-.836 1.748zM21 34.292v-4.585l1.392-.491.157-.458c.131-.383.292-.769.478-1.147l.213-.435-.638-1.334 3.242-3.242 1.334.638.435-.213a9.95 9.95 0 0 1 1.147-.478l.458-.157.49-1.39h4.585l.491 1.392.458.157c.383.131.769.292 1.147.478l.435.213 1.334-.638 3.242 3.242-.638 1.334.213.435a9.95 9.95 0 0 1 .478 1.147l.157.458 1.39.49v4.585l-1.392.491-.157.458c-.131.383-.292.769-.478 1.147l-.213.435.638 1.334-3.242 3.242-1.334-.638-.435.213a9.95 9.95 0 0 1-1.147.478l-.458.157-.49 1.39h-4.585l-.491-1.392-.458-.157c-.383-.131-.769-.292-1.147-.478l-.435-.213-1.334.638-3.242-3.242.638-1.334-.213-.435a9.95 9.95 0 0 1-.478-1.147l-.157-.458zM14 47H4c-1.654 0-3 1.346-3 3v10c0 1.654 1.346 3 3 3h10c1.654 0 3-1.346 3-3V50c0-1.654-1.346-3-3-3zm1 13a1 1 0 0 1-1 1H4a1 1 0 0 1-1-1V50a1 1 0 0 1 1-1h10a1 1 0 0 1 1 1zm45-36H50c-1.654 0-3 1.346-3 3v10c0 1.654 1.346 3 3 3h10c1.654 0 3-1.346 3-3V27c0-1.654-1.346-3-3-3zm1 13a1 1 0 0 1-1 1H50a1 1 0 0 1-1-1V27a1 1 0 0 1 1-1h10a1 1 0 0 1 1 1zM10 17h10c1.654 0 3-1.346 3-3V4c0-1.654-1.346-3-3-3H10C8.346 1 7 2.346 7 4v10c0 1.654 1.346 3 3 3zM9 4a1 1 0 0 1 1-1h10a1 1 0 0 1 1 1v10a1 1 0 0 1-1 1H10a1 1 0 0 1-1-1zM7 56.586l-1.293-1.293-1.414 1.414L7 59.414l6.707-6.707-1.414-1.414zM19.707 6.707l-1.414-1.414L13 10.586l-1.293-1.293-1.414 1.414L13 13.414zM53 33.586l-1.293-1.293-1.414 1.414L53 36.414l6.707-6.707-1.414-1.414zM46.757 45.03l.485 1.94 5.684-1.421C48.335 52.661 40.519 57 32 57a24.79 24.79 0 0 1-10.479-2.295l-.839 1.815C24.241 58.166 28.049 59 32 59c9.059 0 17.379-4.54 22.367-12.004l.641 5.128 1.984-.248-1.14-9.12zm-34.784-8.798l-1.945-.465-1.22 5.106C7.612 37.913 7 34.938 7 32a24.8 24.8 0 0 1 2.333-10.562l-1.813-.846C5.848 24.178 5 28.016 5 32c0 3.183.655 6.394 1.935 9.579l-4.452-2.455-.966 1.752 8.258 4.552zM33.555 9.168L30.303 7H32a24.94 24.94 0 0 1 22.184 13.461l1.773-.925C51.284 10.57 42.104 5 32 5h-1.697l3.252-2.168-1.109-1.664L25.197 6l7.248 4.832z"/></svg>