<svg fill="rgb(201,169,130)" xmlns="http://www.w3.org/2000/svg" height="682.667" viewBox="0 -6 512.001 512" width="682.667" xmlns:v="https://vecta.io/nano"><path d="M210.359 447.887l-1.504 7.348 1.449-7.355c-4.062-.801-8.008 1.844-8.809 5.906a7.5 7.5 0 0 0 5.91 8.809c.012.004.125.023.137.027.477.09.949.137 1.418.137 3.527 0 6.672-2.5 7.355-6.094a7.5 7.5 0 0 0-5.957-8.777zm57.344 2.41l.746 7.461-.77-7.457c-4.121.422-7.117 4.105-6.691 8.227a7.5 7.5 0 0 0 7.449 6.734 8.63 8.63 0 0 0 .777-.039l.207-.023c4.102-.48 7.012-4.18 6.555-8.281s-4.172-7.051-8.273-6.621zm-28.711.945l-.109-.004c-4.133-.187-7.586 3.023-7.773 7.16s3.066 7.641 7.203 7.828a5.16 5.16 0 0 0 .348.008 7.5 7.5 0 0 0 .332-14.992zm-56.336-10.976l-.094-.035c-3.898-1.398-8.148.641-9.547 4.539s.668 8.211 4.566 9.613c.84.301 1.695.441 2.535.441 3.074 0 5.961-1.902 7.059-4.965a7.5 7.5 0 0 0-4.52-9.594zm113.352 4.781l1.848 7.27-1.871-7.262c-4.012 1.031-6.426 5.121-5.395 9.133.871 3.383 3.918 5.633 7.258 5.633a7.43 7.43 0 0 0 1.879-.242l.199-.051c3.98-1.086 6.309-5.176 5.246-9.164s-5.168-6.355-9.164-5.316zm27.113-9.457l2.973 6.883-2.996-6.875c-3.797 1.656-5.535 6.074-3.883 9.871 1.23 2.824 3.988 4.508 6.883 4.508a7.51 7.51 0 0 0 2.988-.625c.031-.016.152-.066.184-.082 3.762-1.699 5.422-6.105 3.742-9.875s-6.109-5.465-9.891-3.805zM154.008 93.699a7.55 7.55 0 0 0 3.555-.891 7.5 7.5 0 0 0 3.086-10.148c-1.949-3.652-6.488-5.039-10.145-3.086l-.09.047c-3.652 1.949-4.992 6.469-3.043 10.125 1.344 2.523 3.953 3.953 6.637 3.953zm-86.754 83.77a7.49 7.49 0 0 0 3.48.859c2.699 0 5.309-1.461 6.648-4.02l.133-.262a7.5 7.5 0 0 0-3.422-10.039c-3.691-1.82-8.152-.32-10.004 3.348-1.914 3.664-.5 8.191 3.164 10.113zm-10.559 28.215a7.49 7.49 0 0 0 2.406.398c3.125 0 6.043-1.973 7.102-5.098l.098-.297c1.219-3.957-1.004-8.156-4.965-9.371-3.926-1.211-8.094.969-9.348 4.875-1.316 3.918.789 8.168 4.707 9.492zm0 0"/><path d="M82.051 151.23a7.47 7.47 0 0 0 4.406 1.438c2.316 0 4.605-1.074 6.07-3.09l.098-.133c2.406-3.367 1.621-8.039-1.738-10.445a7.51 7.51 0 0 0-10.465 1.723l6.043 4.445-6.066-4.414a7.5 7.5 0 0 0 1.652 10.477zm46.496-41.332a7.43 7.43 0 0 0 4.516-1.527 7.5 7.5 0 0 0-8.859-12.102l-.187.137a7.52 7.52 0 0 0-1.449 10.52c1.477 1.945 3.715 2.973 5.98 2.973zM50 319.426a7.49 7.49 0 0 0 9.367 4.953c3.938-1.207 6.16-5.379 4.98-9.324a7.5 7.5 0 0 0-9.184-5.168c-3.996 1.09-6.352 5.215-5.262 9.211l.098.328zm0 0"/><path d="M105.891 129.664c1.949 0 3.898-.754 5.371-2.254 2.926-2.93 2.926-7.68 0-10.605s-7.68-2.93-10.609 0l-.125.125c-2.898 2.957-2.84 7.699.117 10.598a7.46 7.46 0 0 0 5.246 2.137zM58.289 286.727a7.51 7.51 0 0 0-8.328-6.48 7.51 7.51 0 0 0-6.559 8.336l.043.301c.547 3.727 3.746 6.398 7.406 6.398a7.5 7.5 0 0 0 1.098-.082 7.51 7.51 0 0 0 6.34-8.473zm-9.422-21.481l.227.004a7.5 7.5 0 0 0 7.492-7.281l.008-.32a7.5 7.5 0 1 0-7.727 7.597zm0 0"/><path d="M50.512 235.168a7.74 7.74 0 0 0 1.332.117 7.51 7.51 0 0 0 7.375-6.18l.051-.328a7.5 7.5 0 0 0-6.328-8.512 7.51 7.51 0 0 0-8.496 6.223 7.51 7.51 0 0 0 6.066 8.68zm353.789-81.57a7.47 7.47 0 0 0 6.172 3.238 7.46 7.46 0 0 0 4.246-1.324 7.51 7.51 0 0 0 1.93-10.43l-6.234 4.172 6.211-4.207c-2.328-3.43-6.992-4.324-10.418-2s-4.324 6.988-2 10.418zm38.301 75.472a7.5 7.5 0 0 0-6.613 8.293l.039.324c.535 3.738 3.746 6.438 7.418 6.438a7.62 7.62 0 0 0 1.07-.074c4.066-.582 6.902-4.328 6.375-8.391a7.51 7.51 0 0 0-8.289-6.59zm0 0"/><path d="M429.945 207.906l.031.098a7.5 7.5 0 0 0 7.191 5.387 7.39 7.39 0 0 0 2.117-.309 7.5 7.5 0 0 0 5.082-9.312l-.031-.098c-1.168-3.977-5.336-6.25-9.312-5.078a7.5 7.5 0 0 0-5.078 9.313zm-10.593-28.043a7.54 7.54 0 0 0 6.766 4.211 7.4 7.4 0 0 0 3.289-.77c3.715-1.828 5.258-6.297 3.426-10.016l-6.797 3.168 6.789-3.184a7.5 7.5 0 1 0-13.582 6.367zm-33.942-49.687c1.469 1.5 3.41 2.25 5.355 2.25 1.895 0 3.789-.711 5.25-2.145 2.938-2.875 3.004-7.574.172-10.535a7.5 7.5 0 0 0-10.582-.406c-3.043 2.809-3.23 7.555-.422 10.598zm59.629 130.211c-4.121-.105-7.57 3.125-7.715 7.246-.187 4.105 2.965 7.602 7.074 7.832a7.57 7.57 0 0 0 .426.012c3.949 0 7.258-3.09 7.48-7.086l.012-.309a7.49 7.49 0 0 0-7.277-7.695zM337.449 93.348l.18.098c1.117.594 2.316.875 3.496.875a7.5 7.5 0 0 0 6.605-3.957c1.953-3.637.578-8.184-3.047-10.152l-3.629 6.563 3.605-6.578c-3.633-1.992-8.191-.66-10.184 2.973s-.66 8.191 2.973 10.18zm0 0"/><path d="M362.816 109.797l.117.09c1.355 1.027 2.945 1.523 4.527 1.523a7.49 7.49 0 0 0 5.98-2.969c2.504-3.301 1.855-8.004-1.441-10.508l-.051-.035a7.5 7.5 0 0 0-10.516 1.379c-2.523 3.285-1.902 7.996 1.383 10.52zM507.371 373.93l-35.207-35.27a15.74 15.74 0 0 0-11.215-4.652 15.73 15.73 0 0 0-11.211 4.652l-.816.816-2.312-2.312c-2.855-2.863-5.066-6.195-6.566-9.824a7.31 7.31 0 0 0-.535-1.391 30.33 30.33 0 0 1-1.746-10.187v-9.977a7.49 7.49 0 0 0 3.508.867 7.5 7.5 0 0 0 7.367-6.148 7.5 7.5 0 0 0-5.887-8.809 7.47 7.47 0 0 0-5.035.758 42.28 42.28 0 0 0-12.395-28.203l-34.156-34.215a40.28 40.28 0 0 0-28.695-11.902c-8.391 0-16.383 2.543-23.125 7.25l-3.625-3.645v-85.781a42.59 42.59 0 0 0-10.566-28.086c-4.848-5.523-7.516-12.617-7.516-19.977v-6.285h.516c8.742 0 15.855-7.113 15.855-15.859V15.859A15.88 15.88 0 0 0 318.152 0H178.055C169.313 0 162.2 7.113 162.2 15.859V65.75c0 8.746 7.113 15.859 15.855 15.859h1.156v3.289a30.09 30.09 0 0 1-8.852 21.402l-15.121 15.148a42.31 42.31 0 0 0-12.441 30.09v48.387a40.44 40.44 0 0 0 4.355 18.281 40.27 40.27 0 0 0-26.316 11.828L86.68 264.25c-8.023 8.039-12.441 18.727-12.441 30.09v21.422c0 8.086-3.141 15.688-8.848 21.402l-2.285 2.289c-.012.008-.02.016-.027.023l-.812-.816a15.74 15.74 0 0 0-11.215-4.652 15.73 15.73 0 0 0-11.211 4.652L4.629 373.93c-6.172 6.184-6.172 16.246 0 22.43l12.059 12.074a7.5 7.5 0 0 0 10.605.012c2.93-2.93 2.938-7.676.008-10.609l-12.055-12.078a.87.87 0 0 1 0-1.23l35.211-35.27a.84.84 0 0 1 1.191 0l6.121 6.133h.004l83.582 83.727 9.363 9.383a.87.87 0 0 1 0 1.23L115.512 485a.84.84 0 0 1-1.195 0l-65.781-65.895a7.5 7.5 0 0 0-10.605-.012c-2.934 2.93-2.937 7.676-.012 10.609l65.785 65.895c2.992 3 6.977 4.652 11.215 4.652a15.74 15.74 0 0 0 11.211-4.652l35.207-35.27a15.9 15.9 0 0 0 0-22.426l-.383-.383 4.441-4.449a30.14 30.14 0 0 1 19.402-8.797 42.44 42.44 0 0 0 27.309-12.383l32.344-32.414c9.328-2.449 16.59-10.047 18.563-19.562 3.324 1.582 7.039 2.473 10.961 2.473 14.105 0 25.582-11.488 25.582-25.613v-17.809a25.42 25.42 0 0 0 10.582 2.301c14.105 0 25.578-11.488 25.578-25.613v-52.648l23.07 23.184a7.47 7.47 0 0 0 5.316 2.207 7.48 7.48 0 0 0 5.293-2.184 7.5 7.5 0 0 0 .023-10.605l-19.234-19.328c3.723-2.051 7.918-3.145 12.285-3.145 6.828 0 13.25 2.664 18.078 7.504l34.156 34.211c5.195 5.207 8.059 12.129 8.059 19.492v21.422c0 12.09 4.699 23.453 13.23 32l2.328 2.332-10.879 10.898-65.797 65.91-3.668-3.676c-.039-.035-.074-.074-.113-.109l-.645-.648a45.16 45.16 0 0 0-29.043-13.164c-6.668-.434-12.941-3.277-17.687-8.027l-24.645-24.512c-2.937-2.922-7.687-2.91-10.609.027a7.5 7.5 0 0 0 .031 10.605l24.629 24.492a42.44 42.44 0 0 0 27.313 12.383 30.15 30.15 0 0 1 19.398 8.793l.363.363c.195.223.402.43.621.625l3.457 3.461-.383.387a15.9 15.9 0 0 0 0 22.426l35.207 35.27a15.74 15.74 0 0 0 11.215 4.652 15.75 15.75 0 0 0 11.215-4.652l99.07-99.242a15.9 15.9 0 0 0 0-22.426zm-64.582-74.578l-.141-.023-1.367-.277zM201.488 401.293a27.45 27.45 0 0 1-17.66 8.012 45.16 45.16 0 0 0-29.047 13.164l-4.426 4.434-3.984-3.992-.152-.152-72.539-72.665 2.328-2.332c8.531-8.547 13.23-19.91 13.23-32V294.34a27.4 27.4 0 0 1 8.059-19.492l34.156-34.211c4.828-4.84 11.25-7.504 18.078-7.504a25.37 25.37 0 0 1 12.324 3.168l-19.266 19.297a7.5 7.5 0 0 0 .008 10.605c1.465 1.461 3.383 2.191 5.301 2.191s3.844-.734 5.309-2.199l23.012-23.055v93.633c0 14.125 11.477 25.613 25.582 25.613a25.43 25.43 0 0 0 11.102-2.539c1.523 7.434 6.273 13.699 12.711 17.27zm119.23-105.637c0 5.852-4.75 10.613-10.582 10.613s-10.582-4.762-10.582-10.613v-83.66a7.5 7.5 0 1 0-15 0v124.781c0 5.852-4.746 10.609-10.582 10.609-5.238 0-9.586-3.836-10.426-8.855V211.91a7.5 7.5 0 0 0-7.5-7.5 7.49 7.49 0 0 0-3.672.961c-2.371 1.262-3.984 3.754-3.984 6.625v124.777a25.87 25.87 0 0 0 .156 2.813v15.113c0 5.852-4.746 10.613-10.582 10.613s-10.578-4.762-10.578-10.613V211.82c0-4.141-3.359-7.5-7.5-7.5s-7.504 3.359-7.504 7.5v124.953c0 5.852-4.746 10.613-10.578 10.613s-10.582-4.762-10.582-10.613V197.262c0-4.145-3.359-7.504-7.5-7.504a7.5 7.5 0 0 0-7.5 7.504v25.805a7.37 7.37 0 0 0-1.805.863c-9.699-3.645-16.621-13.027-16.621-24.004v-48.387c0-7.363 2.863-14.285 8.059-19.492l15.121-15.148c8.535-8.547 13.234-19.91 13.234-32V81.61h15.078a7.5 7.5 0 1 0 0-15h-31.234a.86.86 0 0 1-.855-.859V15.859a.86.86 0 0 1 .855-.859h140.094a.86.86 0 0 1 .859.859V65.75c0 .477-.383.859-.859.859H244.5a7.5 7.5 0 0 0-7.5 7.5c0 4.141 3.359 7.5 7.5 7.5h58.137v6.285c0 11 3.988 21.605 11.234 29.871 4.414 5.031 6.848 11.492 6.848 18.191zm176.035 90.102L397.684 485a.8.8 0 0 1-.598.25c-.23 0-.43-.082-.598-.25l-35.207-35.27a.87.87 0 0 1 0-1.23l5.668-5.68 57.516-57.613 35.887-35.949c.328-.332.863-.332 1.191 0l35.211 35.27a.87.87 0 0 1 0 1.23zM201.801 32.805c-4.402 0-7.984 3.59-7.984 8s3.582 8 7.984 8 7.988-3.586 7.988-8-3.582-8-7.988-8zm261.601 341.883c-4.406 0-7.988 3.59-7.988 8s3.582 8 7.988 8 7.984-3.59 7.984-8-3.582-8-7.984-8zm-338.418 76.515c0-4.41-3.582-8-7.984-8a8.01 8.01 0 0 0-7.988 8c0 4.41 3.582 8 7.988 8s7.984-3.59 7.984-8zm0 0"/></svg>