<svg fill="rgb(201,169,130)" xmlns="http://www.w3.org/2000/svg" height="512" viewBox="0 0 512.536 512.536" width="512" xmlns:v="https://vecta.io/nano"><path d="M504.006 74.928c-18.929-11.361-37.71-20.249-56.217-26.628 10.747-4.427 18.591-6.078 18.698-6.101 6.897-1.396 8.106-11.055 1.766-14.108C428.069 8.743 389.417-.619 353.353.243c-52.027-.399-107.028 30.262-134.851 65.879l-.588-2.925c-2.249-9.652-16.36-6.827-14.706 2.956 7.098 33.576 12.105 78.547-14.632 105.505-.759-11.307.044-23.531 2.456-36.628 7.796-40.846-4.302-85.056-41.707-101.686 5.702-13.187 7.778-23.442 7.965-24.403 1.058-5.448-4.776-10.997-10.614-8.188l-27.308 13.14 1.274-4.208c1.915-6.324-5.052-11.942-10.826-8.727L70.401 22.902C54.856 31.556 42.298 44.4 34.084 60.045c-7.922 15.09-16.781 31.195-26.332 47.869-10.297 17.979 10.123 38.736 28.307 29.46l52.121-26.589c10.223-5.214 16.957-14.934 18.326-26.04 4.636-2.72 8.873-5.79 12.74-9.098 8.881 3.28 10.831 16.18 11.15 18.963 2.528 22.053-7.633 41.499-18.392 62.087-11.062 21.171-21.342 43.297-22.647 67.531-1.022 18.983 3.802 37.987 13.952 54.957 5.274 8.82 17.652.291 12.873-7.699-8.611-14.397-12.707-30.46-11.846-46.451 1.958-48.171 46.214-82.169 40.964-132.133-1.658-14.457-7.803-23.438-15.069-28.315 4.924-5.792 9.02-11.875 12.403-17.81 26.949 10.925 40.981 45.712 33.647 85.537-9.37 50.875 5.515 100.04 51.808 127.166 34.665 20.329 59.201 43.427 73.979 69.799-3.878 2.333-8.92 5.243-12.576 6.905a7.5 7.5 0 0 0-3.724 9.931c1.622 3.568 6.394 5.332 9.932 3.724 3.909-1.777 8.909-4.614 12.965-7.027 5.869 14.007 9.242 28.893 10.113 44.708l-12.244.555c-4.138.188-7.34 3.694-7.153 7.832.178 4.144 3.729 7.351 7.832 7.153l11.608-.526c-.875 16.584-4.902 31.5-12.019 44.589l-7.301-4.497a7.5 7.5 0 1 0-7.866 12.772l6.947 4.279c-9.35 12.031-21.561 21.537-35.866 27.994l-3.998-8.514c-1.761-3.749-6.229-5.361-9.977-3.601s-5.361 6.228-3.601 9.977l3.44 7.325c-84.87 23.371-137.119-53.113-97.485-118.542 2.779-.159 4.685 1.129 5.76 3.745-14.378 30.3-9.741 57.784 13.303 77.766 88.467 66.847 175.738-83.627 30.131-128.404l1.243-5.8c2.853-12.58-12.43-21.733-22.175-13.284l-8.674 7.344c-9.228-4.068-16.736-8.029-23.375-12.32-8.49-5.123-16.302 6.96-8.142 12.598 5.638 3.644 11.79 7.046 18.875 10.426l-26.501 22.438c-7.825 6.624-5.522 19.421 3.801 23.11-26.778 52.119-7.281 117.693 51.501 135.404 108.566 31.302 180.242-85.205 131.884-178.406-14.747-32.533-44.136-58.025-73.7-76.703 30.499-20.12 55.979-.367 57.116.539 3.875 3.14 9.88 1.578 11.708-3.072 13.987-35.521 54.106-45.363 88.467-34.774 5.197 1.602 10.484-2.927 9.633-8.329-4.776-31.108.24-56.992 14.908-76.932 2.455-3.337 1.739-8.031-1.597-10.486s-8.031-1.74-10.486 1.597c-12.333 16.766-18.85 36.848-19.515 59.925-26.58-30.488-54.798-54.146-114.367-69.008a7.5 7.5 0 0 0-3.263 14.642c57.496 14.299 86.324 38.699 111.296 70.736-28.67-3.449-59.373 3.34-77.805 27.116-3.022-13.219-8.846-31.898-20.094-55.41a7.5 7.5 0 0 0-10.002-3.529c-3.736 1.788-5.316 6.266-3.529 10.002 12.543 26.218 17.888 45.933 20.172 57.982-22.684-9.431-47.398-4.482-66.508 10.515-12.32-7.957-22.063-17.517-29.075-28.549 42.089-14.822 53.241-65.443 51.518-104.962 56.59-69.528 151.137-70.803 225.663-31.987-8.978 2.644-20.03 6.799-31.162 13.24-8.421 5.223-1.229 17.683 7.512 12.983 22.443-12.985 45.123-15.63 45.339-15.654 6.996-.758 9.085-10.266 3.051-13.887zM137.793 21.675c-5.012 13.189-14.549 31.946-31.199 44.902l-.129-10.082 7.001-23.115zM81.364 97.423l-52.121 26.589c-5.481 2.796-11.622-3.147-8.474-8.644 9.641-16.833 18.589-33.1 26.596-48.352 6.854-13.055 17.343-23.778 30.332-31.009l23.214-12.923-9.139 30.172c-.223.735-.331 1.501-.321 2.27l.316 24.753c.093 7.255-3.894 13.824-10.403 17.144zm178.427 293.346c18.203 49.794-39.84 88.385-79.807 53.727-16.234-14.077-20.405-31.931-12.49-53.175 7.825 5.261 18.989.499 20.924-8.528l8.688-40.526c28.697 10.998 52.925 21.804 62.685 48.502zm-73.754-68.43l-11.652 54.356c-9.367-12.934-15.327-16.514-30.805-18.41zM308.981 50.867C282.177 62.552 263.026 78.656 251.82 89.9l-.317-2.967c-.44-4.119-4.135-7.096-8.255-6.66a7.5 7.5 0 0 0-6.66 8.255c4.355 37.008 4.114 100.23-41.414 113.191-1.618-4.017-2.944-8.219-3.991-12.591 31.475-23.131 35.823-67.179 30.959-102.911 48.007-68.876 135.505-89.911 221.787-52.552-5.299 2.105-11.312 4.839-17.577 8.334-39.072-9.45-80.337-7.278-117.371 8.868z"/></svg>