<svg fill="rgb(201,169,130)" xmlns="http://www.w3.org/2000/svg" height="498.667" viewBox="-41 0 374 374.106" width="498.667" xmlns:v="https://vecta.io/nano"><path d="M287.664 75.746L147.059.824c-2.086-1.113-4.586-1.098-6.656.039L3.688 75.785a7 7 0 0 0-3.633 6.141v97.867c.082 80.449 47.746 153.23 121.457 185.461l18.977 8.27c1.773.773 3.793.777 5.57.008l21.383-9.234c75.078-31.531 123.922-105.016 123.93-186.445V81.926c0-2.586-1.426-4.965-3.707-6.18zm-10.293 102.105c-.016 75.816-45.504 144.227-115.41 173.566l-.047.023-18.621 8.039-16.18-7.059c-68.613-30-112.984-97.742-113.062-172.629V86.07l129.762-71.117 133.559 71.168zm-185.203-2.597a7 7 0 0 0-9.871-.777c-2.941 2.508-3.289 6.93-.777 9.867l36.977 43.301a7 7 0 0 0 9.738.887l86.117-70.062a7 7 0 0 0 1.012-9.848c-2.437-2.996-6.848-3.453-9.848-1.012l-80.812 65.742zm0 0"/></svg>