<svg fill="rgb(201,169,130)" xmlns="http://www.w3.org/2000/svg" height="512" viewBox="0 0 511.999 511.999" width="512" xmlns:v="https://vecta.io/nano"><path d="M499.424 267.749c-14.754-6.025-29.753-6.078-42.483-.225 2.417-9.307 4.2-18.806 5.308-28.438 13.97-.354 26.361-5.326 35.375-14.34 10.396-10.396 15.435-25.277 14.188-41.901a7.5 7.5 0 0 0-6.918-6.918c-16.625-1.249-31.504 3.792-41.901 14.188-.278.277-.536.571-.806.855-1.34-11.412-3.621-22.667-6.805-33.652 12.41-4.891 22.021-13.325 27.474-24.311 6.538-13.169 6.567-28.88.082-44.238a7.5 7.5 0 0 0-8.763-4.35c-16.153 4.12-28.649 13.642-35.187 26.812-.526 1.059-.994 2.14-1.436 3.231a205.94 205.94 0 0 0-13.796-21.568c2.553-15.679-.823-30.324-9.621-41.406-9.142-11.516-23.35-18.22-40.008-18.878a7.51 7.51 0 0 0-7.662 6.083c-3.136 16.372.171 31.731 9.312 43.246 8.187 10.313 20.445 16.751 34.879 18.46 3.031 4.072 5.891 8.252 8.574 12.529-11.63-3.664-24.692-2.807-37.513 2.606a7.5 7.5 0 0 0-4.35 8.763c4.12 16.153 13.642 28.65 26.812 35.188 1.423.706 2.898 1.347 4.384 1.904.867.325 1.757.479 2.632.479a7.5 7.5 0 0 0 2.633-14.524c-1.009-.378-2.012-.814-2.98-1.294-7.421-3.684-13.237-10.287-16.793-18.929 9.034-2.392 17.809-1.751 25.23 1.933 7.576 3.761 15.795 13.531 20.191 27.5 3.24 10.153 5.631 20.579 7.155 31.167-10.206-8.759-24.005-12.937-39.291-11.792a7.5 7.5 0 0 0-6.918 6.918c-1.247 16.624 3.792 31.504 14.188 41.901 8.401 8.4 19.731 13.289 32.54 14.204-1.065 8.625-2.707 17.132-4.905 25.47-.049-.098-.09-.198-.14-.295-6.692-13.091-19.301-22.464-35.502-26.394a7.5 7.5 0 0 0-8.711 4.454c-6.302 15.433-6.087 31.143.606 44.233 5.243 10.255 14.128 18.215 25.515 23.077-4.651 8.293-9.927 16.252-15.789 23.814a46.27 46.27 0 0 0-.244-2.593c-1.808-14.591-10.446-27.714-24.324-36.951-3.087-2.056-7.215-1.543-9.709 1.203-11.204 12.344-16.379 27.178-14.571 41.77v-.001c1.394 11.256 6.868 21.629 15.661 30.028a190.59 190.59 0 0 1-42.636 25.433 29.44 29.44 0 0 0-1.523-1.132c-8.004-5.547-18.225-6.817-27.344-3.398l-30.57 11.464c-4.278-4.418-10.264-7.172-16.885-7.172s-12.607 2.754-16.885 7.172l-30.57-11.464c-9.116-3.419-19.339-2.15-27.344 3.397-.542.376-1.067.771-1.579 1.179-15.354-6.616-29.655-15.148-42.747-25.479 8.793-8.398 14.267-18.771 15.661-30.027 1.808-14.591-3.367-29.425-14.571-41.77a7.5 7.5 0 0 0-9.709-1.203c-13.877 9.236-22.516 22.359-24.324 36.951-.107.863-.185 1.728-.244 2.592a192.69 192.69 0 0 1-15.788-23.813c11.387-4.862 20.272-12.821 25.515-23.077 6.693-13.091 6.908-28.8.606-44.233a7.5 7.5 0 0 0-8.711-4.454c-16.201 3.929-28.81 13.303-35.502 26.394-.05.097-.091.198-.14.295a192.19 192.19 0 0 1-4.905-25.47c12.808-.915 24.14-5.804 32.54-14.204 10.396-10.397 15.435-25.277 14.188-41.901a7.5 7.5 0 0 0-6.918-6.918c-15.286-1.148-29.084 3.033-39.291 11.792a192.98 192.98 0 0 1 5.478-25.594c5.243 1.51 10.475 2.284 15.581 2.284 7.528 0 14.782-1.642 21.395-4.924 13.169-6.537 22.691-19.034 26.811-35.187a7.5 7.5 0 0 0-4.35-8.763c-12.821-5.414-25.883-6.27-37.513-2.606 2.683-4.277 5.543-8.456 8.574-12.529 14.434-1.708 26.692-8.147 34.879-18.46 9.142-11.515 12.449-26.874 9.312-43.246a7.51 7.51 0 0 0-7.662-6.083c-16.658.658-30.866 7.362-40.008 18.878-8.798 11.082-12.174 25.727-9.621 41.406-5.06 6.924-9.665 14.127-13.796 21.568-.442-1.091-.91-2.172-1.436-3.231-6.538-13.17-19.034-22.691-35.187-26.812-3.591-.917-7.32.932-8.763 4.35-6.485 15.358-6.456 31.068.082 44.238 5.454 10.986 15.064 19.42 27.474 24.311-3.184 10.985-5.465 22.239-6.805 33.651l-.806-.855c-10.396-10.396-25.276-15.433-41.901-14.188a7.5 7.5 0 0 0-6.918 6.918c-1.247 16.624 3.792 31.505 14.188 41.901 9.015 9.015 21.404 13.987 35.375 14.34 1.108 9.633 2.89 19.132 5.308 28.438-12.73-5.853-27.729-5.8-42.483.225a7.5 7.5 0 0 0-4.453 8.711c3.929 16.201 13.302 28.809 26.393 35.501 6.752 3.452 14.201 5.181 21.95 5.181 5.596 0 11.349-.912 17.108-2.717a207.54 207.54 0 0 0 15.594 24.442c-13.277-.49-26.548 4.693-37.763 14.873a7.5 7.5 0 0 0-1.203 9.709c9.237 13.877 22.36 22.516 36.951 24.323 1.906.236 3.815.353 5.723.353 11.203 0 22.338-4.04 32.174-11.677a205.53 205.53 0 0 0 45.526 28.152c-1.346 3.418-2.073 7.099-2.073 10.875 0 9.738 4.778 18.863 12.782 24.41a29.7 29.7 0 0 0 16.92 5.288c3.513 0 7.044-.623 10.423-1.891l30.57-11.463a23.64 23.64 0 0 0 3.193 2.757l-47.668 47.668a7.5 7.5 0 0 0 10.606 10.606l50.753-50.753 50.753 50.753c1.464 1.465 3.384 2.197 5.303 2.197s3.839-.732 5.303-2.197a7.5 7.5 0 0 0 0-10.606l-47.668-47.668a23.64 23.64 0 0 0 3.193-2.757l30.57 11.463a29.66 29.66 0 0 0 10.424 1.891 29.7 29.7 0 0 0 16.92-5.288c8.004-5.547 12.782-14.672 12.782-24.41a29.65 29.65 0 0 0-2.099-10.937c16.319-7.374 31.509-16.769 45.386-28.089 9.837 7.638 20.97 11.677 32.174 11.677 1.907 0 3.818-.117 5.723-.353 14.591-1.808 27.714-10.446 36.951-24.323a7.5 7.5 0 0 0-1.203-9.709c-11.215-10.18-24.487-15.361-37.764-14.873 5.775-7.795 10.985-15.962 15.594-24.442 5.759 1.806 11.511 2.717 17.108 2.717 7.748 0 15.198-1.729 21.95-5.181 13.091-6.692 22.464-19.301 26.393-35.501.884-3.609-1.009-7.311-4.444-8.714zM473.6 200.721c5.859-5.859 13.97-9.266 23.297-9.879-.614 9.325-4.02 17.438-9.879 23.296s-13.97 9.265-23.296 9.878c.613-9.324 4.019-17.436 9.878-23.295zM452.425 117.9c3.684-7.421 10.286-13.237 18.929-16.793 2.393 9.034 1.752 17.81-1.932 25.231-3.656 7.364-10.188 13.144-18.732 16.708l-.606-1.587c-1.893-8.442-1.116-16.596 2.341-23.559zm-64.897-45.287c-5.152-6.49-7.609-14.938-7.155-24.272 9.194 1.675 16.865 5.984 22.017 12.474s7.609 14.938 7.155 24.272c-9.195-1.675-16.865-5.985-22.017-12.474zm37.692 141.526c-5.859-5.859-9.265-13.972-9.879-23.297 9.326.614 17.438 4.02 23.297 9.879 5.694 5.694 9.063 13.521 9.812 22.518l-.031.771c-9.283-.633-17.361-4.033-23.199-9.871zm-13.364 65.45c-3.771-7.377-4.516-16.144-2.23-25.206 8.684 3.454 15.354 9.191 19.126 16.568 3.677 7.194 4.468 15.709 2.387 24.53l-.29.62c-8.617-3.459-15.24-9.172-18.993-16.512zm-37.59 55.303c-1.019-8.224 1.282-16.714 6.532-24.447 6.977 6.218 11.281 13.892 12.3 22.114 1.008 8.137-1.24 16.536-6.373 24.203l-.212.197c-6.945-6.21-11.231-13.865-12.247-22.067zm-118.184 72.066a8.53 8.53 0 0 1 8.516 8.516 8.53 8.53 0 0 1-8.515 8.517 8.53 8.53 0 0 1-8.517-8.517 8.53 8.53 0 0 1 8.516-8.516zM118.901 332.56c1.019-8.223 5.323-15.897 12.3-22.115 5.25 7.733 7.55 16.224 6.532 24.447-1.016 8.202-5.302 15.857-12.248 22.066l-.212-.197c-5.132-7.666-7.379-16.065-6.372-24.201zm-35.654-61.608c3.772-7.377 10.442-13.114 19.126-16.568 2.285 9.062 1.541 17.829-2.23 25.206-3.752 7.339-10.375 13.053-18.993 16.513l-.29-.62c-2.082-8.822-1.291-17.338 2.387-24.531zm13.411-80.11c-.614 9.325-4.02 17.438-9.879 23.297-5.839 5.838-13.915 9.239-23.199 9.871l-.031-.771c.749-8.997 4.118-16.823 9.812-22.518 5.86-5.859 13.97-9.265 23.297-9.879zm21.283-63.722c-3.557 8.643-9.372 15.245-16.793 18.929s-16.197 4.326-25.231 1.932c3.557-8.643 9.372-15.244 16.794-18.929s16.197-4.325 25.23-1.932zm-8.331-66.306c5.152-6.489 12.822-10.799 22.017-12.474.454 9.335-2.003 17.783-7.155 24.272s-12.822 10.799-22.017 12.473c-.455-9.334 2.003-17.781 7.155-24.271zm-67.032 65.524c-3.684-7.421-4.325-16.197-1.932-25.231 8.643 3.557 15.245 9.372 18.929 16.793 3.456 6.963 4.234 15.117 2.341 23.558l-.606 1.587c-8.545-3.563-15.077-9.343-18.732-16.707zm-17.597 87.801c-5.859-5.859-9.265-13.972-9.879-23.297 9.326.614 17.437 4.02 23.297 9.879s9.265 13.971 9.878 23.296c-9.325-.613-17.437-4.019-23.296-9.878zm16.362 84.467c-7.377-3.771-13.114-10.442-16.568-19.126 9.061-2.285 17.829-1.542 25.206 2.231s13.115 10.442 16.568 19.126c-9.062 2.286-17.829 1.541-25.206-2.231zm47.652 74.28c-8.223-1.019-15.896-5.322-22.114-12.299 7.732-5.25 16.222-7.552 24.447-6.532 6.745.835 13.118 3.885 18.624 8.803l2.62 2.557.871.94c-7.734 5.249-16.224 7.55-24.448 6.531zm114.366 56.351c-4.581 1.718-9.513 1.104-13.533-1.681s-6.326-7.19-6.326-12.082 2.306-9.295 6.326-12.081a14.51 14.51 0 0 1 13.533-1.681l29.372 11.014a23.52 23.52 0 0 0-.166 2.748c0 .931.06 1.847.166 2.749zm118.976-1.682c-4.02 2.786-8.952 3.4-13.534 1.682l-29.371-11.014c.106-.902.166-1.818.166-2.749a23.52 23.52 0 0 0-.166-2.748l29.371-11.014c4.579-1.717 9.513-1.105 13.534 1.682s6.326 7.189 6.326 12.081a14.5 14.5 0 0 1-6.326 12.08zm122.782-66.968c-6.218 6.977-13.892 11.281-22.114 12.299s-16.714-1.282-24.447-6.532c.285-.32.577-.628.868-.938l2.625-2.561c5.505-4.917 11.877-7.965 18.621-8.801 8.224-1.017 16.715 1.284 24.447 6.533zm25.537-61.981c-7.378 3.772-16.144 4.517-25.206 2.23 3.454-8.684 9.19-15.354 16.568-19.126s16.145-4.517 25.206-2.23c-3.454 8.684-9.19 15.354-16.568 19.126zm-324.02-150.142c.565.583 13.857 14.593 13.857 42.783 0 13.805-2.354 24.485-4.63 34.812-2.959 13.429-6.02 27.315-3.303 46.329 2.823 19.757 12.091 34.375 29.167 46.004a7.5 7.5 0 1 0 8.443-12.398c-13.527-9.212-20.546-20.23-22.76-35.728-2.332-16.321.187-27.748 3.103-40.98l1.408-6.517h168.324l1.408 6.517c2.916 13.231 5.435 24.658 3.103 40.98-4.036 28.251-23.919 37.753-46.941 48.754-15 7.167-30.422 14.538-41.738 27.658-10.114-11.692-23.548-18.874-36.663-25.228-3.727-1.805-8.214-.249-10.02 3.479s-.248 8.213 3.479 10.02c14.698 7.121 28.57 14.645 36.779 28.326a7.5 7.5 0 0 0 12.862 0c9.052-15.086 24.943-22.68 41.767-30.72 23.508-11.234 50.152-23.966 55.324-60.167 2.716-19.014-.344-32.9-3.303-46.329-2.276-10.328-4.63-21.007-4.63-34.812 0-28.19 13.292-42.201 13.82-42.745a7.5 7.5 0 0 0 .553-9.988l-32.033-40.041c-2.513-3.142-7.087-3.718-10.328-1.336-1.157.852-28.742 20.591-63.742-.41a7.5 7.5 0 0 0-7.718 0c-34.999 21-62.585 1.261-63.714.431a7.5 7.5 0 0 0-10.356 1.314l-32.033 40.041c-2.388 2.985-2.187 7.249.515 9.951zm69.914 59.308h-17.033v-16.524a.51.51 0 0 1 .508-.508h16.524v17.032zm83.577-32.032a12.54 12.54 0 0 1-12.52-12.521c0-6.903 5.617-12.52 12.52-12.52a12.54 12.54 0 0 1 12.521 12.52 12.54 12.54 0 0 1-12.521 12.521zm26.286-62.754l24.185 30.231c-5.393 7.711-13.926 23.75-13.926 48.03 0 5.986.401 11.452 1.024 16.524h-30.068v-18.08c11.54-3.274 20.021-13.898 20.021-26.473 0-15.175-12.346-27.52-27.521-27.52s-27.52 12.345-27.52 27.52c0 12.575 8.48 23.199 20.02 26.473v18.08h-29.044v-92.405c28.555 12.043 52.082 3.315 62.829-2.38zm-140.661.001c10.747 5.695 34.273 14.422 62.831 2.38v92.405H231.55v-49.064h.508a7.5 7.5 0 1 0 0-15h-8.008a7.5 7.5 0 0 0-7.5 7.5v24.532h-16.524a15.53 15.53 0 0 0-15.508 15.508v16.524H174.47c.623-5.072 1.024-10.538 1.024-16.524 0-24.28-8.534-40.319-13.926-48.03zm70.33-26.353a39.27 39.27 0 0 0 27.954-11.579c15.414-15.413 15.414-40.493 0-55.907a7.5 7.5 0 0 0-10.606 10.606c9.565 9.565 9.565 25.129 0 34.694a24.37 24.37 0 0 1-34.694 0c-9.565-9.565-9.565-25.129 0-34.694a7.5 7.5 0 0 0-10.606-10.606c-15.414 15.414-15.414 40.494 0 55.907 7.465 7.467 17.393 11.579 27.952 11.579zm-12.332 209.28l40.181-26.171 2.893 2.893c4.623 4.623 10.77 7.169 17.308 7.169 3.816 0 8.066-1.615 11.864-3.88 4.007-2.39 4.691-7.917 1.389-11.214-2.553-2.549-6.503-3.037-9.612-1.208-1.295.761-2.596 1.302-3.64 1.302-2.531 0-4.911-.986-6.701-2.776l-8.3-8.3c-8.916-8.916-21.009-13.925-33.619-13.925h-30.79c-17.154 0-31.672 13.424-32.181 30.571-.529 17.816 13.811 32.478 31.51 32.478 7.447 0 14.297-2.603 19.698-6.939zm28.519-36.478l-16.72 10.891c-.178-5.678-1.86-10.981-4.667-15.523h4.631c5.999 0 11.748 1.613 16.756 4.632zm-64.743 11.893c0-9.111 7.413-16.524 16.524-16.524s16.524 7.413 16.524 16.524c0 5.013-2.252 9.503-5.788 12.536a7.6 7.6 0 0 0-.762.607c-2.776 2.112-6.226 3.381-9.974 3.381-9.112 0-16.524-7.413-16.524-16.524z"/></svg>