<svg version="1.2" xmlns="http://www.w3.org/2000/svg" viewBox="0 0 796 216" width="796" height="216">
	<title>erc20-svg</title>
	<style>
		.s0 { fill: #c9a982 } 
		.s1 { opacity: .6;fill: #c9a982 } 
		.s2 { opacity: .5;fill: #c9a982 } 
		.s3 { opacity: .8;fill: #c9a982 } 
	</style>
	<path id="Layer" fill-rule="evenodd" class="s0" d="m238.7 114.1c0 1.4-1.2 2.5-2.6 2.5h-47.7c1.2 11.8 10.1 22.6 22.6 22.6 8.6 0 14.9-3.2 19.7-10.1 0.4-0.7 1.2-1.2 2.1-1.2 1.3 0 2.3 1 2.4 2.2v0.1c0 0.4-0.1 0.9-0.4 1.2-4.9 8.5-14.4 12.6-23.8 12.6-16.1 0-27.6-14.4-27.6-29.7 0-15.3 11.4-29.7 27.6-29.7 16.2 0 27.7 14.2 27.7 29.5zm-5.1-2.2c-1-11.8-10.1-22.6-22.6-22.6-12.5 0-21.4 10.7-22.6 22.6z"/>
	<path id="Layer" class="s0" d="m296.7 85.7c1.3 0 2.3 1.1 2.4 2.4 0 1.3-1 2.3-2.2 2.4h-0.1-12.8v50.3c0 1.3-1.1 2.4-2.4 2.4-1.3 0-2.3-1.1-2.4-2.4v-50.4h-12.3c-1.3 0-2.3-1-2.4-2.2v-0.1c0-1.3 1.1-2.4 2.4-2.4h12.3v-18.4c0-1.3 0.9-2.3 2.2-2.5 1.3-0.2 2.5 0.7 2.6 2 0 0.1 0 0.2 0 0.4v18.5z"/>
	<path id="Layer" class="s0" d="m374.8 110v30.4c0 1.3-1.1 2.3-2.4 2.4-1.3 0-2.3-1-2.4-2.2v-0.1-30.5c0-10.3-5.8-20.5-17.3-20.5-14.7 0-21 12.8-20.2 26 0 0.4 0.1 1.9 0.1 2.1v22.8c0 1.3-0.9 2.3-2.2 2.5-1.3 0.2-2.5-0.7-2.6-2 0-0.1 0-0.2 0-0.4v-83.1c0-1.3 1.1-2.4 2.4-2.4 1.3 0 2.3 1.1 2.4 2.4v39.6c4.1-7.3 11.4-12.3 20-12.3 14.3-0.1 22.2 12.3 22.2 25.3z"/>
	<path id="Layer" fill-rule="evenodd" class="s0" d="m460.6 114.1c0 1.4-1.2 2.5-2.6 2.5h-47.7c1.2 11.8 10.1 22.6 22.6 22.6 8.6 0 14.9-3.2 19.7-10.1 0.4-0.7 1.2-1.2 2.1-1.2 1.3 0 2.3 1 2.4 2.2v0.1c0 0.4-0.1 0.9-0.4 1.2-4.8 8.3-14.4 12.5-23.8 12.5-16.1 0-27.6-14.4-27.6-29.7 0-15.3 11.4-29.7 27.6-29.7 15.9 0 27.6 14.3 27.7 29.6zm-5.2-2.2c-1-11.8-10.1-22.6-22.6-22.6-12.5 0-21.4 10.7-22.6 22.6z"/>
	<path id="Layer" class="s0" d="m519.2 87.9c0.1 1.3-0.9 2.5-2.2 2.6-14 2.1-20.4 13.5-20.4 26.8v22.8c0 1.3-0.9 2.3-2.2 2.5-1.3 0.2-2.5-0.7-2.6-2 0-0.1 0-0.2 0-0.4v-52c0-1.3 0.9-2.3 2.2-2.5 1.3-0.2 2.5 0.7 2.6 2 0 0.1 0 0.2 0 0.4v10.6c4-6.7 11.8-13 20-13 1.3 0 2.6 0.8 2.6 2.2z"/>
	<path id="Layer" fill-rule="evenodd" class="s0" d="m597.7 114.1c0 1.4-1.2 2.5-2.6 2.5h-47.7c1.2 11.8 10.1 22.6 22.6 22.6 8.6 0 14.9-3.2 19.7-10.1 0.4-0.7 1.2-1.2 2.1-1.2 1.3 0 2.3 1 2.4 2.2v0.1c0 0.4-0.1 0.9-0.4 1.2-4.9 8.5-14.4 12.6-23.8 12.6-16.1 0-27.6-14.4-27.6-29.7 0-15.3 11.4-29.7 27.6-29.7 16.2 0 27.6 14.2 27.7 29.5zm-5.1-2.2c-1-11.8-10.1-22.6-22.6-22.6-12.5 0-21.4 10.7-22.6 22.6z"/>
	<path id="Layer" class="s0" d="m674.9 88.5v52.3c0 1.3-1.1 2.3-2.4 2.4-1.3 0-2.3-1-2.4-2.2v-0.1-9.9c-4 7.8-10.9 13.5-19.9 13.5-14.2 0-22-12.3-22-25.3v-30.8c0-1.3 1.1-2.4 2.4-2.4 1.3 0 2.3 1.1 2.4 2.4v30.6c0 10.3 5.8 20.5 17.3 20.5 16.1 0 19.9-15 19.9-31.7v-19.5c0-1.3 1.1-2.4 2.4-2.4 0.3 0 0.5 0.1 0.8 0.1 0.9 0.5 1.5 1.4 1.5 2.5z"/>
	<path id="Layer" class="s0" d="m795.7 109.8v30.6c0 1.3-1.1 2.3-2.4 2.4-1.3 0-2.3-1-2.4-2.2v-0.1-30.7c0-10.3-5.8-20.4-17.3-20.4-14.4 0-19.9 15.4-19.9 27.4v23.6c0 1.3-1.1 2.3-2.4 2.4-1.3 0-2.3-1-2.4-2.2v-0.1-30.7c0-10.3-5.8-20.4-17.3-20.4-14.5 0-20.5 11.4-20 26.7 0 0.4 0.1 1 0 1.2v23c0 1.3-0.9 2.3-2.2 2.5-1.3 0.2-2.5-0.7-2.6-2 0-0.1 0-0.2 0-0.4v-52.2c0-1.3 0.9-2.3 2.2-2.5 1.3-0.2 2.5 0.7 2.6 2 0 0.1 0 0.2 0 0.4v8.7c4.1-7.3 11.4-12.2 20-12.2 9.7 0 17.3 6.2 20.4 15.2 4-8.9 11.7-15.2 21.5-15.2 14.2 0 22.2 12.2 22.2 25.2z"/>
	<g id="Layer">
		<path id="Layer" class="s1" d="m132.5 109.9l-66.3 39.2-66.2-39.2 66.2-30.1z"/>
		<path id="Layer" class="s2" d="m66.2 0v149.1l-66.2-39.2z"/>
		<path id="Layer" class="s3" d="m132.5 109.9l-66.3 39.2v-149.1z"/>
		<path id="Layer" class="s2" d="m66.2 161.6v54.2l-66.2-93.3z"/>
		<path id="Layer" class="s3" d="m132.5 122.5l-66.3 93.3v-54.2z"/>
	</g>
</svg>