<svg xmlns="http://www.w3.org/2000/svg" viewBox="0 0 1000 367.8" fill="rgb(201,169,130)" xmlns:v="https://vecta.io/nano"><path d="M722.6 135.6h40.6V262h-40.6zm-64.4-3c-17.6 0-29.9 6.9-39.1 20.7h-.8v-17.6h-39.1-.8v127.2H619v-69.7c0-15.3 9.2-26.8 22.2-26.8s19.9 9.2 19.9 22.2v74.3h40.6v-82c.2-28.4-15.9-48.3-43.5-48.3zm-142.5 68.2c0 17.6-10 29.9-29.9 29.9-21.5 0-30.7-11.5-30.7-29.1V95.8h-43.7V200c0 41.4 24.5 65.9 74.3 65.1 49 0 73.6-24.5 73.6-65.1V95.8h-43.7v105zm443.7-64.4L942.5 190c-3.8 12.3-7.7 29.1-7.7 29.1h-.8s-3.8-16.9-7.7-29.1l-16.9-53.6h-42.1l37.5 97.3c5.4 13 7.7 20.7 7.7 26.1 0 8.4-5.4 13-16.9 13H882l.8 31.4h26.1c25.3 0 37.5-10 47.5-39.8l43.7-128h-40.7zM833.7 95.8h-39.1v39.8h-16.9v33h16.9v60.5c0 27.6 16.9 35.2 39.8 35.2 10.7 0 18.4-1.5 22.2-2.3v-29h-9.2c-8.4 0-13.8-2.3-13.8-12.3v-52.1h23v-33h-23V95.8zm-111.1-10h40.6v33h-40.6zM177 65.9l58.2 33.7c2.3 1.5 2.3 4.6 0 5.4l-69 39.8c-2.3 1.5-4.6.8-6.1 0l-69-39.8c-2.3-.8-2.3-4.6 0-5.4l58.2-33.7V0L0 85.8v170.9.8l56.7-33v-67.4c0-2.3 3.1-3.8 4.6-3.1l69 39.8c2.3 1.5 3.1 3.1 3.1 5.4v79.7c0 2.3-3.1 3.8-4.6 3.1l-58.2-33.7-56.7 33 1 .6-.3.2 62.1 35.8 85.8 50 .4-.2.4.2v-.4L311.1 282l-56.7-33-58.2 33.7c-2.3 1.5-4.6 0-4.6-3.1V200c0-2.3 1.5-4.6 3.1-5.4l69-39.8c2.3-1.5 4.6 0 4.6 3.1v67.4l56.7 33V257l.8.4V85.8L177 0v65.9z"/></svg>