<svg xmlns="http://www.w3.org/2000/svg" viewBox="0 0 512 512" fill="rgb(217,200,180)" xmlns:v="https://vecta.io/nano"><path d="M482 55H30C13.5 55 0 68.5 0 85v342c0 16.5 13.5 30 30 30h411.5 4.5 36c16.5 0 30-13.5 30-30v-57V85c0-16.5-13.5-30-30-30zm10 337.9V427c0 5.5-4.5 10-10 10h-40.7 0H30c-5.5 0-10-4.5-10-10V155h472v237.9zm0-257.9H20V85c0-5.5 4.5-10 10-10h452c5.5 0 10 4.5 10 10v50zm-44-40H232c-5.5 0-10 4.5-10 10s4.5 10 10 10h216c5.5 0 10-4.5 10-10s-4.5-10-10-10zm-340 0c-2.6 0-5.2 1.1-7.1 2.9-1.9 1.9-2.9 4.4-2.9 7.1s1.1 5.2 2.9 7.1c1.9 1.9 4.4 2.9 7.1 2.9s5.2-1.1 7.1-2.9c1.9-1.9 2.9-4.4 2.9-7.1s-1.1-5.2-2.9-7.1c-1.9-1.8-4.5-2.9-7.1-2.9zm-44 0c-2.6 0-5.2 1.1-7.1 2.9-1.9 1.9-2.9 4.4-2.9 7.1s1.1 5.2 2.9 7.1c1.9 1.9 4.4 2.9 7.1 2.9s5.2-1.1 7.1-2.9c1.9-1.9 2.9-4.4 2.9-7.1s-1.1-5.2-2.9-7.1C69.2 96.1 66.6 95 64 95zm88 0c-2.6 0-5.2 1.1-7.1 2.9s-2.9 4.4-2.9 7.1 1.1 5.2 2.9 7.1c1.9 1.9 4.4 2.9 7.1 2.9s5.2-1.1 7.1-2.9c1.9-1.9 2.9-4.4 2.9-7.1s-1.1-5.2-2.9-7.1c-1.9-1.8-4.5-2.9-7.1-2.9zm12 300.2h75l-26.2-6.1v-82.9l112.5-107.4H266l27.9 16.6-81.9 81.2v-88.2l26.1-9.6H164l18.3 9.6v178.9zm151.9-21.4l-.6-.8-60.6-92.1-19.2 16.1 56.3 89.4-19.7 8.8H348l-22.7-7z"/></svg>