<svg xmlns="http://www.w3.org/2000/svg" viewBox="0 0 512 512" fill="rgb(217,200,180)" xmlns:v="https://vecta.io/nano"><path d="M512 243c-.1-64.6-51.5-117.4-116-119.3-22.7-46.9-66-80.5-117.1-90.7-90.1-18-177.7 40.4-195.7 130.5C35.1 171.8 0 213.4 0 262.2c0 55.3 44.8 100.2 100.1 100.2H159a12.04 12.04 0 0 0 12-12 12.04 12.04 0 0 0-12-12h-58.9c-39.8 0-72.9-30.7-75.9-70.4-3.2-42 28.3-78.6 70.2-81.7 5.6-.4 10.2-4.7 11-10.3 9.8-69.7 70.4-122.2 140.9-122.2 57.1-.1 108.7 34.1 131 86.7 2 4.6 6.5 7.5 11.5 7.3 1.4-.1 2.7-.1 3.9-.1 52.7 0 95.3 42.7 95.3 95.3s-42.7 95.3-95.3 95.3H353a12.04 12.04 0 0 0-12 12 12.04 12.04 0 0 0 12 12h39.7c65.8 0 119.2-53.4 119.3-119.3h0zM322.7 386.6l-54.8 54.8.2-102.2a12.04 12.04 0 0 0-12-12h0a12.04 12.04 0 0 0-12 12l-.2 101.9-54.6-54.6c-4.7-4.7-12.3-4.7-17 0s-4.7 12.3 0 17l75.2 75.2c4.7 4.7 12.3 4.7 17 0l75.2-75.2c4.6-4.7 4.5-12.3-.2-17-4.7-4.5-12.1-4.5-16.8.1zm-139.3-99.7h59.2l-20.7-4.8v-65.5l88.8-84.7h-46.8l22 13.1-64.7 64.1v-69.6l20.7-7.6h-58.5l14.4 7.6v141.2zm145.2 0l-17.9-5.5-7.5-11.4-.4-.6-47.8-72.7-15.2 12.7 44.4 70.6-15.5 6.9z"/></svg>