<svg xmlns="http://www.w3.org/2000/svg" viewBox="0 0 795.6 215.8" fill="rgb(201,169,130)" xmlns:v="https://vecta.io/nano"><path d="M222 26h36.6c9.3 0 16.1 2.5 20.5 6.8 4.3 3.7 6.2 8.7 6.2 13.6h0c0 1.9 0 4.3-.6 6.2-1.2 3.1-3.1 6.2-5.6 8.7-1.2 1.2-2.5 1.9-3.7 2.5 4.3 1.2 8.1 3.7 11.2 6.8 2.5 3.1 3.7 6.8 3.7 12.4h0c0 3.1-.6 6.8-1.9 9.3-1.2 2.5-3.7 5-6.2 6.8-3.1 1.9-6.2 3.1-9.3 4.3-3.7 1.2-8.1 1.2-12.4 1.2h-37.9V25.8h-.6v.2zm33.5 32.2c3.1 0 6.2-.6 9.3-1.9 2.5-1.2 3.7-3.7 3.7-6.2h0c0-2.5-1.2-5-3.1-6.2-2.5-1.9-5.6-2.5-8.7-1.9h-17.4v16.7h16.1v-.5h.1zm4.3 31.7c3.1 0 6.2-.6 9.3-1.9 2.5-1.2 3.7-3.7 3.1-6.8h0c0-2.5-1.2-5-3.1-6.2s-5.6-2.5-9.9-2.5h-20.5v17.4h21.1zM311.9 26h17.4v79.4h-17.4zm44.1 0h16.1l37.2 49V26h17.3v79.4h-14.8l-39.1-50.3v50.3H356zm123.4-.6h16.1l34.1 80h-18l-7.4-18h-33.5l-7.4 18h-18l34.1-80zM498 72.5l-10.5-26-10.5 26h21zM548.2 26h16.1l37.2 49V26h17.4v79.4H604l-38.5-50.3v50.3h-17.3zm133.9 80.6c-5.6 0-11.2-1.2-16.1-3.1-9.9-4.3-17.4-11.8-21.7-21.7-1.9-5-3.1-10.5-3.1-16.1h0c0-10.5 4.3-21.1 11.8-29.1 3.7-3.7 8.1-6.8 13-8.7 5.6-2.5 11.2-3.1 16.7-3.1 3.1 0 6.8 0 9.9.6s5.6 1.2 8.1 2.5c2.5 1.2 5 2.5 6.8 3.7 1.9 1.2 4.3 3.1 6.2 5l-10.5 13c-3.1-2.5-6.2-5-9.3-6.8s-6.8-2.5-10.5-2.5c-3.1 0-6.2.6-9.3 1.9-3.1 1.2-5.6 3.1-7.4 5.6s-3.7 5-5 8.1c-1.2 3.1-1.9 6.2-1.9 9.3h0c0 3.1.6 6.8 1.9 9.9s2.5 5.6 5 8.1c4.3 5 10.5 7.4 16.7 7.4 3.7 0 8.1-.6 11.8-2.5 3.1-1.9 6.8-4.3 9.3-6.8l11.1 11.1-6.2 6.2c-2.5 1.9-5 3.1-7.4 4.3-2.5 1.2-5.6 2.5-8.7 3.1-4.4.6-8.1.6-11.2.6h0zM735.5 26H795v15.5h-42.8v16.1H790v15.5h-37.8v16.8h43.4v15.5h-60.1zM244.3 183.5c-4.3 0-8.7-.6-12.4-2.5-3.7-1.2-7.4-3.7-11.2-6.8l6.2-6.8c2.5 2.5 5 3.7 8.1 5.6 3.1 1.2 6.2 1.9 9.3 1.9 2.5 0 5-.6 7.4-1.9 1.9-1.2 2.5-3.1 2.5-5h0c0-.6 0-1.9-.6-2.5s-1.2-1.9-1.9-2.5c-1.2-.6-2.5-1.2-3.7-1.9-1.9-.6-4.3-1.2-6.2-1.9-2.5-.6-5.6-1.2-8.1-2.5-1.9-.6-4.3-1.9-5.6-3.1-1.2-1.2-2.5-2.5-3.7-4.3-1.2-2.5-1.2-5-1.2-6.8h0c0-2.5.6-4.3 1.2-6.8.6-1.9 2.5-3.7 3.7-5 1.9-1.2 3.7-2.5 6.2-3.1s5-1.2 7.4-1.2c3.7 0 7.4.6 11.2 1.9 3.1 1.2 6.2 3.1 9.3 5l-5 7.4c-2.5-1.9-5-3.1-7.4-4.3-2.5-1.2-5-1.2-7.4-1.2-2.5 0-5 .6-6.8 1.9-1.2 1.2-2.5 3.1-2.5 5h0c0 1.2 0 1.9.6 3.1.6.6 1.2 1.9 1.9 2.5 1.2.6 2.5 1.2 4.3 1.9 1.9.6 3.7 1.2 6.8 1.9 2.5.6 5 1.2 8.1 2.5 1.9.6 3.7 1.9 5.6 3.1 1.2 1.2 2.5 3.1 3.1 4.3.6 1.9 1.2 3.7 1.2 6.2h0c0 2.5-.6 5-1.2 6.8-1.2 1.9-2.5 3.7-4.3 5.6-1.9 1.2-3.7 2.5-6.2 3.1-3.1-.2-6.2.4-8.7.4zm31-56.4h10.6l16.7 26 17.4-26h10.5v55.8h-9.9v-40.3l-17.4 26h-.6l-17.3-26v40.3h-10zm88.7-.6h9.3l24.2 55.8H387l-5.6-13.6h-26l-5.6 13.6h-9.9l24.1-55.8zm14.3 34.1l-9.9-22.3-9.3 22.3h19.2zm29.1-33.5h24.8c3.1 0 6.2.6 9.3 1.2 2.5.6 5 2.5 6.8 4.3 1.2 1.2 2.5 3.1 3.7 5.6.6 1.9 1.2 4.3 1.2 6.8h0c0 1.9-.6 4.3-1.2 6.2s-1.9 3.1-2.5 5c-1.2 1.2-2.5 2.5-4.3 3.7-1.9 1.2-3.7 1.9-5.6 2.5l14.9 21.1h-11.8l-13.6-19.2h-12.4v19.2h-9.9l.6-56.4zm24.2 27.3c3.1 0 6.2-.6 8.1-2.5s3.1-4.3 3.1-6.8h0c0-2.5-1.2-5-3.1-6.8-2.5-1.9-5.6-2.5-8.7-2.5h-14.3v18.6h14.9zm47.1-18.6h-18v-8.7H506v8.7h-18v47.1h-9.9zm87.5 47.7c-3.7 0-7.4-.6-11.2-2.5-6.8-3.1-12.4-8.1-14.9-14.9-1.2-3.7-2.5-7.4-1.9-11.2h0c0-3.7.6-7.4 1.9-11.2 2.5-6.8 8.1-12.4 14.9-15.5 3.7-1.2 7.4-2.5 11.8-2.5 2.5 0 5 0 6.8.6 1.9.6 3.7 1.2 5.6 1.9 1.9.6 3.1 1.9 5 2.5 1.2 1.2 3.1 2.5 4.3 3.7l-6.2 7.4c-1.9-1.9-4.3-3.7-6.8-5-2.5-1.2-5.6-1.9-8.7-1.9-2.5 0-5 .6-7.4 1.2-2.5 1.2-4.3 2.5-6.2 4.3-1.9 1.9-3.1 3.7-3.7 6.2s-1.2 5-1.2 7.4h0c0 2.5.6 5 1.2 7.4s1.9 4.3 3.7 6.2c1.9 1.9 3.7 3.1 6.2 4.3s5 1.9 7.4 1.2c3.1 0 6.2-.6 8.7-1.9 2.5-1.2 5-3.1 7.4-5.6l6.2 6.2-4.3 4.3c-1.9 1.2-3.1 2.5-5 3.1s-3.7 1.9-6.2 1.9c-2.5 2.4-5 2.4-7.4 2.4h0zm32.8-56.4h9.3V150H635v-22.9h9.9v55.8H635v-23.6h-26.7v23.6H599zm80-.6h9.3l24.2 55.8H702l-5.6-13.6h-26l-5.6 13.6h-9.9l24.1-55.8zm13.7 34.1l-9.3-22.3-9.3 22.3h18.6zm29.7-33.5h10v55.8h-10zm24.8 0h8.7l29.8 38.4v-38.4h9.9v55.8h-8.1l-30.3-39.7v39.7h-10zm-634.3 52.1v24.2l-21.1 12.4-20.5-12.4v-24.2l20.5 12.4 21.1-12.4zM0 95.5l20.5 12.4v41.5l35.3 21.1v24.2L0 161.8V95.5zm183.6 0v66.4l-56.4 32.9v-24.2l35.3-21.1V108l21.1-12.5zm-56.5-32.9L148.2 75h0v24.2l-35.3 21.1v42.1l-20.5 12.4L72 162.4v-42.2L35.4 99.1V74.9l21.1-12.4 35.3 21.1 35.3-21zm-91.7 53.9l20.5 12.4v24.2l-20.5-12.4v-24.2zm112.8 0v24.2l-20.5 12.4v-24.2l20.5-12.4zm-127.7-75l21.1 12.4-21.1 12.4v24.2L0 78.1V53.9l20.5-12.4zm142.6 0l21.1 12.4v24.2l-21.1 12.4V66.3l-20.5-12.4 20.5-12.4zm-71.3 0l21.1 12.4-21.1 12.4-20.5-12.4 20.5-12.4zm0-41.5l56.4 32.9-20.5 12.4-35.3-21.1-36 21.1-20.5-12.4L91.8 0z"/></svg>