<?xml version="1.0" encoding="utf-8"?>
<!-- Generator: Adobe Illustrator 26.2.1, SVG Export Plug-In . SVG Version: 6.00 Build 0)  -->
<svg version="1.1" id="Calque_1" xmlns="http://www.w3.org/2000/svg" xmlns:xlink="http://www.w3.org/1999/xlink" x="0px" y="0px"
	 viewBox="0 0 30.9 13" style="enable-background:new 0 0 30.9 13;" xml:space="preserve">
<g>
	<path d="M30.8,6.2l-5.4-5.4l-0.7,0.7l5.1,5.1l-5.1,5.1l0.7,0.7l5.4-5.4c0.1-0.1,0.2-0.2,0.2-0.4C30.9,6.4,30.9,6.3,30.8,6.2z"/>
	<path d="M26.2,6.6c0-0.1-0.1-0.3-0.2-0.4l-4-4c-0.2-0.2-0.5-0.2-0.7,0l-1.7,1.7L16,0.2c-0.3-0.3-0.8-0.3-1.1,0l-3.6,3.7L9.6,2.2
		C9.4,2,9.1,2,8.9,2.2l-4,4C4.7,6.3,4.7,6.4,4.7,6.6c0,0.1,0.1,0.3,0.2,0.4l4,4c0.1,0.1,0.2,0.1,0.4,0.1s0.3,0,0.4-0.1l1.7-1.7
		l3.6,3.6c0.1,0.1,0.3,0.2,0.5,0.2s0.4-0.1,0.5-0.2l3.6-3.6l1.7,1.7c0.1,0.1,0.2,0.1,0.4,0.1s0.3,0,0.4-0.1l4-4
		C26.2,6.8,26.2,6.7,26.2,6.6z M18.7,8l-1.4-1.4l1.5-1.5l1.4,1.4L18.7,8z M10.7,6.5L12.2,5l1.5,1.5L12.3,8L10.7,6.5z M9.2,9.9
		L5.9,6.6l3.3-3.3l1.3,1.3L9.2,6C9,6.1,8.9,6.3,8.9,6.5c0,0.2,0.1,0.4,0.3,0.6l1.4,1.4L9.2,9.9z M15.5,11.2L13,8.7l1.8-1.8
		C14.9,6.8,15,6.7,15,6.6c0-0.1-0.1-0.3-0.1-0.4l-1.9-1.9l2.5-2.5L18,4.4l-1.8,1.8C16.1,6.3,16,6.4,16,6.6c0,0.1,0.1,0.3,0.1,0.4
		L18,8.7L15.5,11.2z M21.7,9.9l-1.4-1.4l1.4-1.4C21.9,6.9,22,6.7,22,6.5c0-0.2-0.1-0.4-0.3-0.6l-1.4-1.4l1.3-1.3L25,6.6L21.7,9.9z"
		/>
	<path d="M6.3,1.5L5.6,0.8L0.2,6.2C0.1,6.3,0,6.4,0,6.6c0,0.1,0.1,0.3,0.2,0.4l5.4,5.4l0.7-0.7L1.2,6.6L6.3,1.5z"/>
</g>
</svg>
