<svg xmlns="http://www.w3.org/2000/svg" width="126.611" height="126.611" fill="#f3ba2f" xmlns:v="https://vecta.io/nano"><path d="M38.171 53.203l24.588-24.587 24.601 24.6 14.307-14.307L62.759 0 23.864 38.896zm-24.41-4.206l14.307 14.307L13.76 77.611-.547 63.304zm24.41 24.411l24.588 24.587 24.6-24.599 14.315 14.299-.007.008-38.908 38.908-38.896-38.895-.02-.02zm87.895-10.098l-14.307 14.307L97.452 63.31l14.307-14.307zm-48.795-.012h.006L62.759 48.78 52.03 59.509h-.001l-1.232 1.233-2.543 2.543h0l-.02.02.02.021 14.505 14.505 14.518-14.518.007-.008z"/></svg>