<svg fill="rgb(201,169,130)" xmlns="http://www.w3.org/2000/svg" height="512" width="512" xmlns:v="https://vecta.io/nano"><path d="M440.371 352.709a7.5 7.5 0 0 0-6.708 4.146l-7.851 15.703-20.903-3.197-12.31-20.516c-7.666-12.778-22.894-18.41-37.029-13.698l-19.924 6.641V322l67.431-26.972a7.5 7.5 0 0 0 4.578-8.389l-29.82-154.059c-9.676-49.996-48.774-88.731-98.303-98.255V7.5a7.5 7.5 0 0 0-7.5-7.5h-32.064a7.5 7.5 0 0 0-7.5 7.5v26.825c-49.529 9.524-88.627 48.259-98.303 98.255l-29.818 154.059a7.5 7.5 0 0 0 4.578 8.389L176.355 322v19.788l-19.924-6.641c-14.136-4.712-29.363.921-37.029 13.698l-12.311 20.517-20.903 3.197-7.851-15.703a7.5 7.5 0 0 0-6.708-4.146c-35.076 0-63.613 28.537-63.613 63.613v56.113a7.5 7.5 0 0 0 7.5 7.5h8.532V504.5a7.5 7.5 0 0 0 15 0v-24.564h49.851C92.415 498.176 108.49 512 127.742 512c21.816 0 39.565-17.749 39.565-39.564s-17.749-39.564-39.565-39.564c-19.251 0-35.327 13.824-38.842 32.064H23.016v-48.613c0-25.277 19.394-46.111 44.082-48.404l24.831 49.661a7.5 7.5 0 1 0 13.416-6.708l-12.109-24.218 16.671-2.55 122.56 84.26V504.5a7.5 7.5 0 1 0 15 0v-80.161c0-4.705 3.828-8.532 8.532-8.532s8.532 3.828 8.532 8.532V504.5a7.5 7.5 0 1 0 15 0v-36.135l78.368-53.878a7.5 7.5 0 0 0-8.498-12.36l-69.87 48.035v-25.823c0-12.976-10.557-23.532-23.532-23.532s-23.532 10.557-23.532 23.532v25.823l-110.7-76.107 10.497-17.494c4.021-6.702 12.008-9.658 19.423-7.185l101.941 33.98a7.5 7.5 0 0 0 4.743 0l101.941-33.98c7.415-2.472 15.402.482 19.423 7.185l10.497 17.493-17.511 12.039a7.5 7.5 0 1 0 8.498 12.36l20.873-14.35 16.671 2.55-12.109 24.218a7.5 7.5 0 1 0 13.416 6.708l24.831-49.661c24.688 2.293 44.082 23.126 44.082 48.404v48.613H423.1c-3.516-18.241-19.591-32.064-38.842-32.064-21.816 0-39.565 17.749-39.565 39.564S362.442 512 384.258 512c19.251 0 35.327-13.824 38.842-32.064h49.851V504.5a7.5 7.5 0 1 0 15 0v-24.564h8.532a7.5 7.5 0 0 0 7.5-7.5v-56.113c.001-35.077-28.536-63.614-63.612-63.614zm-312.629 95.162c13.545 0 24.565 11.02 24.565 24.564S141.287 497 127.742 497s-24.564-11.02-24.564-24.564 11.019-24.565 24.564-24.565zm191.871-135.613v-31.64c0-8.703 3.389-16.884 9.542-23.038l17.425-17.425a87.29 87.29 0 0 0 18.588-27.455l8.884-20.729 17.697 91.432zM247.468 15h17.064v109.635L256 133.167l-8.532-8.532zm-15 34.617v78.125a7.5 7.5 0 0 0 2.197 5.303l16.032 16.033c1.406 1.407 3.314 2.197 5.303 2.197s3.897-.79 5.303-2.197l16.032-16.033a7.5 7.5 0 0 0 2.197-5.303V49.617c42.191 9.277 75.255 42.816 83.577 85.813l5.866 30.308-17.594 41.053c-3.658 8.536-8.842 16.192-15.407 22.757l-17.425 17.425c-8.987 8.987-13.936 20.935-13.936 33.645v37.64l-17.064 6.826v-105.15l34.049-22.699c8.796-5.865 14.048-15.678 14.048-26.25v-19.194a7.5 7.5 0 0 0-3.557-6.38c-2.211-1.367-4.972-1.491-7.297-.328l-34.804 17.401c-10.757 5.378-17.439 16.191-17.439 28.218v117.397L256 319.131l-16.548-11.032V190.702c0-12.027-6.682-22.839-17.439-28.218l-34.803-17.401c-2.326-1.164-5.087-1.038-7.297.328a7.5 7.5 0 0 0-3.557 6.38v19.194c0 10.572 5.251 20.385 14.048 26.25l34.048 22.699v105.15l-17.064-6.826v-37.64c0-12.709-4.949-24.658-13.936-33.645l-17.425-17.426c-6.565-6.564-11.749-14.221-15.407-22.756l-17.594-41.053 5.866-30.308c8.321-42.997 41.385-76.536 83.576-85.813zm55.08 152.289v-11.204c0-6.309 3.505-11.98 9.147-14.802l23.949-11.974v7.059a16.52 16.52 0 0 1-7.369 13.77zm-63.096 0l-25.728-17.152c-4.614-3.077-7.369-8.224-7.369-13.77v-7.059l23.949 11.974c5.643 2.821 9.148 8.493 9.148 14.802zm-86.504-9.935l8.884 20.73a87.28 87.28 0 0 0 18.588 27.454l17.425 17.425c6.153 6.154 9.542 14.335 9.542 23.038v31.64l-72.136-28.854zM256 368.336l-64.645-21.548V328l37.811 15.124c.899.36 1.844.537 2.785.537 1.478 0 2.946-.437 4.205-1.29a7.5 7.5 0 0 0 3.295-6.21v-10.035l12.388 8.259a7.49 7.49 0 0 0 8.32 0l12.388-8.259v10.035a7.5 7.5 0 0 0 3.295 6.21c1.259.853 2.727 1.29 4.205 1.29.941 0 1.886-.177 2.785-.537L320.645 328v18.788zM384.258 497c-13.545 0-24.565-11.02-24.565-24.564s11.02-24.564 24.565-24.564 24.564 11.02 24.564 24.564S397.803 497 384.258 497z"/></svg>