<svg fill="rgb(201,169,130)" xmlns="http://www.w3.org/2000/svg" xmlns:xlink="http://www.w3.org/1999/xlink" height="512" viewBox="0 0 60 60" width="512" xmlns:v="https://vecta.io/nano"><path d="M5 24a1 1 0 0 0 .71-.29l4-4c.392-.392.392-1.028 0-1.42s-1.028-.392-1.42 0l-4 4A1 1 0 0 0 5 24zm0 6a1 1 0 0 0 .71-.29l10-10c.392-.392.392-1.028 0-1.42s-1.028-.392-1.42 0l-10 10A1 1 0 0 0 5 30zM57 0H31a3 3 0 0 0-3 3v11H5a5 5 0 0 0-5 5v26a5 5 0 0 0 5 5h11v4h-3a3 3 0 1 0 0 6h44a3 3 0 0 0 3-3V3a3 3 0 0 0-3-3zM5 16h36a3 3 0 0 1 3 3v24H2V19a3 3 0 0 1 3-3zM2 45h42a3 3 0 0 1-3 3H5a3 3 0 0 1-3-3zm16 5h10v4H18zm13 8H13a1 1 0 1 1 0-2h20a1 1 0 1 1 0 2zm27-1a1 1 0 0 1-1 1H35.82A3 3 0 0 0 33 54h-3v-4h11a5 5 0 0 0 5-5V19a5 5 0 0 0-5-5H30V3a1 1 0 0 1 1-1h26a1 1 0 0 1 1 1zM54 5H34a2 2 0 0 0-2 2v2a2 2 0 0 0 2 2h20a2 2 0 0 0 2-2V7a2 2 0 0 0-2-2zM34 9V7h20v2zm18 11a3 3 0 1 0 0-6 3 3 0 1 0 0 6zm0-4a1 1 0 1 1 0 2 1 1 0 1 1 0-2zm3 9a3 3 0 1 0-6 0 3 3 0 1 0 6 0zm-3 1a1 1 0 1 1 0-2 1 1 0 1 1 0 2z"/><use xlink:href="#B"/><use xlink:href="#B" x="4"/><use xlink:href="#B" x="8"/><use xlink:href="#B" x="12"/><use xlink:href="#B" x="16"/><defs ><path id="B" d="M39 52a1 1 0 0 0-1 1v2a1 1 0 1 0 2 0v-2a1 1 0 0 0-1-1z"/></defs></svg>