<svg fill="rgb(201,169,130)" xmlns="http://www.w3.org/2000/svg" height="512" width="512" xmlns:v="https://vecta.io/nano"><path d="M232.697 312.583a7.5 7.5 0 0 0-9.991 3.56 21.08 21.08 0 0 1-18.953 11.987 21.08 21.08 0 0 1-18.953-11.987 7.5 7.5 0 1 0-13.551 6.431c5.926 12.487 18.685 20.555 32.503 20.555s26.577-8.068 32.503-20.555a7.5 7.5 0 0 0-3.558-9.991z"/><ellipse cx="145.204" cy="270.378" rx="11.435" ry="17.027"/><path d="M262.302 253.351c-6.305 0-11.435 7.639-11.435 17.027s5.13 17.027 11.435 17.027 11.435-7.639 11.435-17.027-5.13-17.027-11.435-17.027zM366 0c-28.178 0-54.536 11.105-74.217 31.271a7.5 7.5 0 0 0 10.734 10.476C319.352 24.5 341.898 15 366 15c48.926 0 88.73 39.809 88.73 88.74s-39.804 88.73-88.73 88.73c-48.932 0-88.74-39.804-88.74-88.73 0-12.386 2.502-24.365 7.438-35.605a7.5 7.5 0 1 0-13.734-6.03c-4.86 11.068-7.695 22.744-8.474 34.792-9.996-5.708-23.817-11.443-42.325-14.963-30.777-5.855-68.089-4.522-110.902 3.959-32.736 6.487-52.642 26.275-59.167 58.814-5.472 27.289-1.338 59.446 2.66 90.544l2.218 17.821c-7.754 6.426-12.703 16.127-12.703 26.963 0 16.854 11.976 30.961 27.865 34.264l.655 16.015c1.49 28.998 18.505 53.591 42.971 65.759-4.773 4.902-10.534 11.869-16.351 21.455-13.89 22.891-22.93 51.864-26.869 86.114-.245 2.125.43 4.252 1.853 5.848a7.5 7.5 0 0 0 5.598 2.509h251.53a7.5 7.5 0 0 0 5.597-2.508c1.423-1.595 2.098-3.722 1.854-5.846-.798-6.969-1.825-13.792-3.052-20.28a7.5 7.5 0 1 0-14.739 2.787 256.5 256.5 0 0 1 1.806 10.847h-35.908v-33.63a7.5 7.5 0 1 0-15 0V497h-58.825v-80.706l23.722 24.007a7.5 7.5 0 0 0 5.335 2.229h.074a7.5 7.5 0 0 0 5.364-2.334l34.51-36.337c7.314 6.786 20.398 21.924 30.364 50.039 1.09 3.076 3.981 4.996 7.069 4.996a7.48 7.48 0 0 0 2.506-.433 7.5 7.5 0 0 0 4.563-9.575c-9.62-27.142-22.072-43.639-31.006-52.814 24.465-12.169 41.475-36.761 42.956-65.757l.655-16.012c15.891-3.301 27.87-17.409 27.87-34.265 0-11.417-5.494-21.572-13.974-27.967 2.432-8.379 6.898-25.208 9.805-44.719 1.635.077 3.28.12 4.934.12 57.197 0 103.73-46.533 103.73-103.73C469.73 46.538 423.197 0 366 0zM57.27 280.036c0-8.481 5.311-15.729 12.773-18.635-.36 12.359-.446 24.771-.273 37.16-7.32-2.973-12.5-10.15-12.5-18.525zM137.427 497v-33.63a7.5 7.5 0 1 0-15 0V497H86.525c8.237-56.945 30.031-83.346 40.706-93.161l34.527 36.355a7.5 7.5 0 0 0 5.364 2.334 7.52 7.52 0 0 0 5.409-2.228l23.722-24.007V497zm10.92-92.709l37.59 1.102-18.634 18.858zm91.855 19.96l-18.634-18.858c12.561-.178 25.101-.546 37.59-1.102zm21.623-35.083c-19.263.91-38.663 1.365-58.064 1.365a1232.33 1232.33 0 0 1-58.088-1.365c-32.483-1.534-58.236-27.167-59.904-59.622a847.03 847.03 0 0 1-.597-72.118c12.28-6.701 21.492-20.954 27.425-42.465 2.656-9.628 9.943-17.086 19.492-19.95 9.509-2.852 19.651-.647 27.126 5.897 25.389 22.226 63.68 22.226 89.069 0 7.476-6.544 17.616-8.749 27.126-5.897 9.55 2.863 16.836 10.321 19.492 19.95 5.933 21.509 15.145 35.762 27.423 42.464.829 23.896.628 48.135-.599 72.12-1.655 32.456-27.408 58.088-59.901 59.621zm75.908-90.606a856.47 856.47 0 0 0-.273-37.162c7.463 2.906 12.775 10.154 12.775 18.636 0 8.376-5.181 15.554-12.502 18.526zm-.287-52.782c-2.043-.429-4.152-.672-6.307-.727-11.604-5.117-18.233-21.239-21.775-34.077-4.037-14.636-15.119-25.974-29.644-30.33-14.485-4.343-29.93-.987-41.314 8.979-19.756 17.294-49.552 17.294-69.309 0-11.384-9.965-26.827-13.322-41.314-8.979-14.525 4.355-25.607 15.693-29.644 30.33-3.542 12.84-10.172 28.962-21.779 34.077-2.447.063-4.831.376-7.13.919l-1.597-12.633c-3.844-29.896-7.818-60.811-2.831-85.683 5.365-26.757 20.419-41.708 47.375-47.049 88.657-17.565 131.866.539 150.693 14.361 4.903 45.34 39.142 82.009 83.296 90.592-2.544 16.845-6.349 31.777-8.72 40.22zm28.55-86.216a7.72 7.72 0 0 0-7.708 7.708 7.72 7.72 0 0 0 7.708 7.708 7.72 7.72 0 0 0 7.708-7.708 7.72 7.72 0 0 0-7.708-7.708zm28.56-60.603c7.511-7.911 11.336-18.28 10.77-29.195-1.064-20.498-17.984-36.878-38.521-37.292-19.938-.384-37.062 14.169-39.813 33.892a39.76 39.76 0 0 0-.38 5.485 7.5 7.5 0 1 0 15 0c0-1.144.079-2.291.236-3.41 1.703-12.204 12.315-21.21 24.656-20.969 12.712.256 23.186 10.391 23.844 23.072.351 6.767-2.017 13.191-6.668 18.09a24.17 24.17 0 0 1-17.683 7.602 7.5 7.5 0 0 0-7.5 7.5v33.341a7.5 7.5 0 1 0 15 0V110.53c8.001-1.528 15.302-5.505 21.059-11.569z"/></svg>