<svg fill="rgb(201,169,130)" xmlns="http://www.w3.org/2000/svg" height="512" width="512" xmlns:v="https://vecta.io/nano"><path d="M495 254.083h-30v-59.916c0-17.27-8.802-32.521-22.154-41.507L293.115 2.929c-3.905-3.904-10.238-3.904-14.142 0l-30.461 30.46-30.46-30.46A10 10 0 0 0 210.981 0a10 10 0 0 0-7.071 2.929L62.671 144.167H57c-27.57 0-50 22.43-50 50v88.916c0 5.522 4.477 10 10 10s10-4.478 10-10v-88.916c0-16.542 13.458-30 30-30h358c16.542 0 30 13.458 30 30v59.916H293c-40.804 0-74 33.196-74 74s33.196 74 74 74h152V462c0 16.542-13.458 30-30 30H57c-16.542 0-30-13.458-30-30v-88.917a10 10 0 1 0-20 0V462c0 27.57 22.43 50 50 50h358c27.57 0 50-22.43 50-50v-59.917h30c5.523 0 10-4.478 10-10v-128a10 10 0 0 0-10-10zM90.956 144.167L210.981 24.143l23.388 23.389-96.636 96.636H90.956zm75.063 0L286.043 24.143l120.025 120.024zM485 382.083H293c-29.776 0-54-24.225-54-54s24.224-54 54-54h192zm-192-84c-16.542 0-30 13.458-30 30s13.458 30 30 30 30-13.458 30-30-13.458-30-30-30zm0 40c-5.514 0-10-4.486-10-10s4.486-10 10-10 10 4.486 10 10-4.486 10-10 10zm-276-.003c2.63 0 5.21-1.061 7.07-2.931 1.86-1.859 2.93-4.439 2.93-7.069s-1.07-5.21-2.93-7.07-4.44-2.93-7.07-2.93-5.21 1.069-7.07 2.93A10.08 10.08 0 0 0 7 328.08c0 2.63 1.07 5.21 2.93 7.069A10.03 10.03 0 0 0 17 338.08z"/></svg>